<svg width="664" height="906" viewBox="0 0 664 906" fill="none" xmlns="http://www.w3.org/2000/svg">
	<path d="M20.0863 519.21C21.7362 477.822 56.6257 445.607 98.0142 447.257L144.982 449.129C186.843 450.798 219.22 486.435 216.877 528.264L200.426 822.015C198.265 860.603 167.133 891.231 128.515 892.762L86.1473 894.443C42.4128 896.177 6.49141 860.248 8.2348 816.514L20.0863 519.21Z" fill="#8D040E" stroke="white" stroke-width="10" />
	<path fill-rule="evenodd" clip-rule="evenodd" d="M184.111 13.5203C103.064 15.6869 37.5777 80.3203 34.3483 161.331L13.7772 677.371C17.0811 599.409 230.701 533.704 504.299 507.017C583.935 499.249 647.945 435.597 651.132 355.647L658.727 165.135C662.275 76.1226 589.785 2.67573 500.734 5.05629L184.111 13.5203ZM263.992 159.958C238.259 160.718 217.502 181.261 216.477 206.985L208.639 403.615C210.011 371.163 297.317 362.861 407.988 357.011C433.345 355.671 453.591 335.318 454.602 309.946L458.721 206.627C459.852 178.25 436.7 154.858 408.314 155.696L263.992 159.958Z" fill="#E63946" />
	<path d="M34.3483 161.331L39.3443 161.531L34.3483 161.331ZM184.111 13.5203L183.977 8.52213L184.111 13.5203ZM13.7772 677.371L8.78119 677.172L18.7727 677.583L13.7772 677.371ZM504.299 507.017L503.814 502.04L503.814 502.04L504.299 507.017ZM651.132 355.647L656.128 355.846L656.128 355.846L651.132 355.647ZM658.727 165.135L663.723 165.335L663.723 165.335L658.727 165.135ZM500.734 5.05629L500.6 0.0580729L500.734 5.05629ZM216.477 206.985L211.481 206.786L211.481 206.786L216.477 206.985ZM263.992 159.958L263.844 154.96L263.844 154.96L263.992 159.958ZM208.639 403.615L203.643 403.415L213.634 403.826L208.639 403.615ZM407.988 357.011L407.724 352.018L407.724 352.018L407.988 357.011ZM454.602 309.946L459.598 310.145L459.598 310.145L454.602 309.946ZM458.721 206.627L453.725 206.428L453.725 206.428L458.721 206.627ZM408.314 155.696L408.461 160.694L408.461 160.694L408.314 155.696ZM39.3443 161.531C42.4689 83.1497 105.829 20.6148 184.244 18.5186L183.977 8.52213C100.299 10.759 32.6865 77.4909 29.3523 161.132L39.3443 161.531ZM18.7733 677.57L39.3443 161.531L29.3523 161.132L8.78119 677.172L18.7733 677.57ZM503.814 502.04C366.804 515.405 244.593 538.555 156.088 568.225C111.865 583.051 75.7849 599.593 50.4505 617.535C25.2714 635.368 9.70733 655.317 8.78171 677.16L18.7727 677.583C19.4991 660.444 31.8764 642.944 56.2301 625.696C80.4286 608.558 115.473 592.388 159.267 577.706C246.798 548.362 368.196 525.316 504.784 511.993L503.814 502.04ZM646.136 355.447C643.055 432.738 581.132 494.498 503.814 502.04L504.784 511.993C586.738 503.999 652.835 438.457 656.128 355.846L646.136 355.447ZM653.731 164.936L646.136 355.447L656.128 355.846L663.723 165.335L653.731 164.936ZM500.867 10.0545C587.028 7.75124 657.164 78.8135 653.731 164.936L663.723 165.335C667.386 73.4317 592.543 -2.39977 500.6 0.0580729L500.867 10.0545ZM184.244 18.5186L500.867 10.0545L500.6 0.0580729L183.977 8.52213L184.244 18.5186ZM221.473 207.184C222.394 184.085 241.032 165.638 264.139 164.956L263.844 154.96C235.486 155.797 212.611 178.437 211.481 206.786L221.473 207.184ZM213.635 403.814L221.473 207.184L211.481 206.786L203.643 403.415L213.635 403.814ZM407.724 352.018C352.43 354.941 302.603 358.49 266.385 365.427C248.315 368.888 233.218 373.265 222.435 379.061C211.713 384.825 204.097 392.673 203.643 403.403L213.634 403.826C213.866 398.331 217.678 392.972 227.17 387.869C236.601 382.799 250.505 378.65 268.267 375.248C303.712 368.459 352.874 364.931 408.251 362.004L407.724 352.018ZM449.606 309.747C448.699 332.518 430.523 350.813 407.724 352.018L408.251 362.004C436.166 360.529 458.483 338.119 459.598 310.145L449.606 309.747ZM453.725 206.428L449.606 309.747L459.598 310.145L463.717 206.826L453.725 206.428ZM408.461 160.694C433.951 159.942 454.741 180.947 453.725 206.428L463.717 206.826C464.964 175.554 439.449 149.775 408.166 150.699L408.461 160.694ZM264.139 164.956L408.461 160.694L408.166 150.699L263.844 154.96L264.139 164.956Z" fill="white" />
	<circle cx="267.065" cy="309.628" r="19.472" fill="#8D040E" stroke="white" stroke-width="10" />
	<circle cx="334.255" cy="305.287" r="19.472" fill="#8D040E" stroke="white" stroke-width="10" />
	<circle cx="401.446" cy="301.391" r="19.472" fill="#8D040E" stroke="white" stroke-width="10" />
</svg>
