<svg width="6792" height="1053" viewBox="0 0 6792 1053" fill="none" xmlns="http://www.w3.org/2000/svg">
<g filter="url(#filter0_d)">
<path d="M20.0863 606.21C21.7362 564.822 56.6257 532.607 98.0142 534.257L144.982 536.129C186.843 537.798 219.22 573.435 216.877 615.264L200.426 909.015C198.265 947.603 167.133 978.231 128.515 979.762L86.1473 981.443C42.4128 983.177 6.49141 947.248 8.2348 903.514L20.0863 606.21Z" fill="#8D040E" stroke="white" stroke-width="10"/>
<path fill-rule="evenodd" clip-rule="evenodd" d="M184.111 100.52C103.064 102.687 37.5777 167.32 34.3483 248.331L13.7772 764.371C17.0811 686.409 230.701 620.704 504.299 594.017C583.935 586.249 647.945 522.597 651.132 442.647L658.727 252.135C662.275 163.123 589.785 89.6757 500.734 92.0563L184.111 100.52ZM263.992 246.958C238.259 247.718 217.502 268.261 216.477 293.985L208.639 490.615C210.011 458.163 297.317 449.861 407.988 444.011C433.345 442.671 453.591 422.318 454.602 396.946L458.721 293.627C459.852 265.25 436.7 241.858 408.314 242.696L263.992 246.958Z" fill="#E63946"/>
<path d="M34.3483 248.331L39.3443 248.531L34.3483 248.331ZM184.111 100.52L183.977 95.5221L184.111 100.52ZM13.7772 764.371L8.78119 764.172L18.7727 764.583L13.7772 764.371ZM504.299 594.017L503.814 589.04L503.814 589.04L504.299 594.017ZM651.132 442.647L656.128 442.846L656.128 442.846L651.132 442.647ZM658.727 252.135L663.723 252.335L663.723 252.335L658.727 252.135ZM500.734 92.0563L500.6 87.0581L500.734 92.0563ZM216.477 293.985L211.481 293.786L211.481 293.786L216.477 293.985ZM263.992 246.958L263.844 241.96L263.844 241.96L263.992 246.958ZM208.639 490.615L203.643 490.415L213.634 490.826L208.639 490.615ZM407.988 444.011L407.724 439.018L407.724 439.018L407.988 444.011ZM454.602 396.946L459.598 397.145L459.598 397.145L454.602 396.946ZM458.721 293.627L453.725 293.428L453.725 293.428L458.721 293.627ZM408.314 242.696L408.461 247.694L408.461 247.694L408.314 242.696ZM39.3443 248.531C42.4689 170.15 105.829 107.615 184.244 105.519L183.977 95.5221C100.299 97.759 32.6865 164.491 29.3523 248.132L39.3443 248.531ZM18.7733 764.57L39.3443 248.531L29.3523 248.132L8.78119 764.172L18.7733 764.57ZM503.814 589.04C366.804 602.405 244.593 625.555 156.088 655.225C111.865 670.051 75.7849 686.593 50.4505 704.535C25.2714 722.368 9.70733 742.317 8.78171 764.16L18.7727 764.583C19.4991 747.444 31.8764 729.944 56.2301 712.696C80.4286 695.558 115.473 679.388 159.267 664.706C246.798 635.362 368.196 612.316 504.784 598.993L503.814 589.04ZM646.136 442.447C643.055 519.738 581.132 581.498 503.814 589.04L504.784 598.993C586.738 590.999 652.835 525.457 656.128 442.846L646.136 442.447ZM653.731 251.936L646.136 442.447L656.128 442.846L663.723 252.335L653.731 251.936ZM500.867 97.0545C587.028 94.7512 657.164 165.813 653.731 251.936L663.723 252.335C667.386 160.432 592.543 84.6002 500.6 87.0581L500.867 97.0545ZM184.244 105.519L500.867 97.0545L500.6 87.0581L183.977 95.5221L184.244 105.519ZM221.473 294.184C222.394 271.085 241.032 252.638 264.139 251.956L263.844 241.96C235.486 242.797 212.611 265.437 211.481 293.786L221.473 294.184ZM213.635 490.814L221.473 294.184L211.481 293.786L203.643 490.415L213.635 490.814ZM407.724 439.018C352.43 441.941 302.603 445.49 266.385 452.427C248.315 455.888 233.218 460.265 222.435 466.061C211.713 471.825 204.097 479.673 203.643 490.403L213.634 490.826C213.866 485.331 217.678 479.972 227.17 474.869C236.601 469.799 250.505 465.65 268.267 462.248C303.712 455.459 352.874 451.931 408.251 449.004L407.724 439.018ZM449.606 396.747C448.699 419.518 430.523 437.813 407.724 439.018L408.251 449.004C436.166 447.529 458.483 425.119 459.598 397.145L449.606 396.747ZM453.725 293.428L449.606 396.747L459.598 397.145L463.717 293.826L453.725 293.428ZM408.461 247.694C433.951 246.942 454.741 267.947 453.725 293.428L463.717 293.826C464.964 262.554 439.449 236.775 408.166 237.699L408.461 247.694ZM264.139 251.956L408.461 247.694L408.166 237.699L263.844 241.96L264.139 251.956Z" fill="white"/>
<circle cx="267.065" cy="396.628" r="19.472" fill="#8D040E" stroke="white" stroke-width="10"/>
<circle cx="334.255" cy="392.287" r="19.472" fill="#8D040E" stroke="white" stroke-width="10"/>
<circle cx="401.446" cy="388.391" r="19.472" fill="#8D040E" stroke="white" stroke-width="10"/>
<path d="M902.36 542C900.333 542 899.32 540.987 899.32 538.96L900.536 121.264C900.536 119.643 901.347 118.832 902.968 118.832H1019.7C1056.99 118.832 1086.38 130.181 1107.86 152.88C1129.75 175.579 1140.7 206.384 1140.7 245.296C1140.7 274.075 1135.02 299.003 1123.67 320.08C1112.32 341.157 1097.53 357.371 1079.29 368.72C1061.05 380.069 1041.19 385.744 1019.7 385.744H973.496V538.96C973.496 540.987 972.483 542 970.456 542H902.36ZM973.496 312.176H1019.7C1032.67 312.176 1043.82 306.096 1053.14 293.936C1062.87 281.371 1067.74 265.157 1067.74 245.296C1067.74 229.488 1063.48 216.517 1054.97 206.384C1046.46 196.251 1034.7 191.184 1019.7 191.184L973.496 191.792V312.176ZM1126.24 538.96L1201.63 121.264C1202.04 119.643 1203.05 118.832 1204.67 118.832H1292.83C1294.46 118.832 1295.47 119.643 1295.87 121.264L1368.23 538.96C1368.63 540.987 1367.82 542 1365.79 542H1298.31C1296.68 542 1295.67 540.987 1295.27 538.96L1288.58 494.576H1205.89L1199.2 538.96C1198.8 540.987 1197.78 542 1196.16 542H1128.67C1127.05 542 1126.24 540.987 1126.24 538.96ZM1218.05 429.52H1276.42L1251.49 258.672L1247.84 236.176L1245.41 258.672L1218.05 429.52ZM1408.81 542C1407.19 542 1406.38 540.987 1406.38 538.96L1407.6 121.264C1407.6 119.643 1408.41 118.832 1410.03 118.832H1532.85C1554.73 118.832 1574.8 124.304 1593.04 135.248C1611.68 145.787 1626.48 160.176 1637.42 178.416C1648.37 196.251 1653.84 216.517 1653.84 239.216C1653.84 254.213 1651.61 267.792 1647.15 279.952C1642.69 291.707 1637.42 301.84 1631.34 310.352C1625.26 318.459 1619.79 324.539 1614.93 328.592C1636.81 352.912 1647.76 381.488 1647.76 414.32L1648.37 538.96C1648.37 540.987 1647.35 542 1645.33 542H1576.62C1575 542 1574.19 541.392 1574.19 540.176V414.32C1574.19 399.728 1568.92 387.163 1558.38 376.624C1548.25 365.68 1535.68 360.208 1520.69 360.208H1480.56L1479.95 538.96C1479.95 540.987 1479.14 542 1477.52 542H1408.81ZM1480.56 287.248H1532.85C1545.41 287.248 1556.56 282.587 1566.29 273.264C1576.01 263.941 1580.88 252.592 1580.88 239.216C1580.88 226.245 1576.01 215.099 1566.29 205.776C1556.96 196.453 1545.82 191.792 1532.85 191.792H1480.56V287.248ZM1679.02 538.96L1754.42 121.264C1754.82 119.643 1755.83 118.832 1757.46 118.832H1845.62C1847.24 118.832 1848.25 119.643 1848.66 121.264L1921.01 538.96C1921.41 540.987 1920.6 542 1918.58 542H1851.09C1849.47 542 1848.45 540.987 1848.05 538.96L1841.36 494.576H1758.67L1751.98 538.96C1751.58 540.987 1750.56 542 1748.94 542H1681.46C1679.83 542 1679.02 540.987 1679.02 538.96ZM1770.83 429.52H1829.2L1804.27 258.672L1800.62 236.176L1798.19 258.672L1770.83 429.52ZM2057.37 548.08C2035.48 548.08 2015.62 542.608 1997.78 531.664C1979.95 520.72 1965.56 506.128 1954.61 487.888C1944.07 469.243 1938.81 448.571 1938.81 425.872V233.136C1938.81 211.248 1944.07 191.184 1954.61 172.944C1965.56 154.299 1979.95 139.504 1997.78 128.56C2016.02 117.616 2035.88 112.144 2057.37 112.144C2079.66 112.144 2099.72 117.616 2117.56 128.56C2135.8 139.099 2150.19 153.488 2160.73 171.728C2171.26 189.968 2176.53 210.437 2176.53 233.136V261.104C2176.53 262.725 2175.52 263.536 2173.49 263.536H2105.4C2103.78 263.536 2102.97 262.725 2102.97 261.104V238C2102.97 222.597 2098.51 209.829 2089.59 199.696C2081.08 189.563 2070.34 184.496 2057.37 184.496C2045.61 184.496 2035.07 189.36 2025.75 199.088C2016.83 208.816 2012.37 220.165 2012.37 233.136V425.872C2012.37 439.248 2016.83 450.8 2025.75 460.528C2034.67 469.851 2045.21 474.512 2057.37 474.512C2070.34 474.512 2081.08 469.851 2089.59 460.528C2098.51 451.205 2102.97 439.653 2102.97 425.872V396.08H2060.41C2058.38 396.08 2057.37 395.067 2057.37 393.04V324.944C2057.37 322.917 2058.38 321.904 2060.41 321.904H2174.1C2175.72 321.904 2176.53 322.917 2176.53 324.944V425.872C2176.53 448.571 2171.06 469.243 2160.12 487.888C2149.58 506.128 2135.39 520.72 2117.56 531.664C2099.72 542.608 2079.66 548.08 2057.37 548.08ZM2332.3 548.08C2310.41 548.08 2290.35 542.608 2272.11 531.664C2254.27 520.315 2239.88 505.52 2228.94 487.28C2218 468.635 2212.52 448.165 2212.52 425.872L2213.13 233.136C2213.13 210.843 2218.4 190.576 2228.94 172.336C2239.88 154.096 2254.48 139.504 2272.72 128.56C2290.96 117.616 2310.82 112.144 2332.3 112.144C2354.19 112.144 2374.05 117.616 2391.88 128.56C2409.72 139.504 2423.91 154.096 2434.44 172.336C2445.39 190.576 2450.86 210.843 2450.86 233.136L2451.47 425.872C2451.47 448.165 2446 468.635 2435.05 487.28C2424.51 505.52 2410.12 520.315 2391.88 531.664C2374.05 542.608 2354.19 548.08 2332.3 548.08ZM2332.3 474.512C2344.46 474.512 2355 469.648 2363.92 459.92C2373.24 449.787 2377.9 438.437 2377.9 425.872L2377.29 233.136C2377.29 219.76 2373.04 208.411 2364.52 199.088C2356.01 189.765 2345.27 185.104 2332.3 185.104C2319.73 185.104 2308.99 189.765 2300.08 199.088C2291.16 208.005 2286.7 219.355 2286.7 233.136V425.872C2286.7 439.248 2291.16 450.8 2300.08 460.528C2308.99 469.851 2319.73 474.512 2332.3 474.512ZM2503.17 542C2499.92 542 2498.3 540.581 2498.3 537.744L2497.7 123.696C2497.7 120.453 2499.32 118.832 2502.56 118.832H2557.28L2660.03 358.384L2656.99 123.696C2656.99 120.453 2658.82 118.832 2662.46 118.832H2722.66C2725.09 118.832 2726.3 120.453 2726.3 123.696L2726.91 538.352C2726.91 540.784 2725.9 542 2723.87 542H2670.37L2565.18 318.256L2569.44 537.136C2569.44 540.379 2567.62 542 2563.97 542H2503.17ZM2981.85 548.08C2959.55 548.08 2939.29 542.608 2921.05 531.664C2903.21 520.315 2889.03 505.317 2878.49 486.672C2867.95 468.027 2862.68 447.152 2862.68 424.048L2863.29 234.352C2863.29 212.059 2868.35 191.792 2878.49 173.552C2889.03 154.907 2903.21 140.112 2921.05 129.168C2939.29 117.819 2959.55 112.144 2981.85 112.144C3004.14 112.144 3024.21 117.616 3042.04 128.56C3059.87 139.504 3074.06 154.299 3084.6 172.944C3095.14 191.184 3100.41 211.653 3100.41 234.352V262.32C3100.41 263.941 3099.6 264.752 3097.98 264.752H3029.88C3028.26 264.752 3027.45 263.941 3027.45 262.32V234.352C3027.45 220.976 3022.99 209.424 3014.07 199.696C3005.56 189.968 2994.82 185.104 2981.85 185.104C2967.26 185.104 2956.11 190.171 2948.41 200.304C2940.71 210.032 2936.86 221.381 2936.86 234.352V424.048C2936.86 439.045 2941.11 451.205 2949.62 460.528C2958.54 469.851 2969.28 474.512 2981.85 474.512C2994.82 474.512 3005.56 469.445 3014.07 459.312C3022.99 448.773 3027.45 437.019 3027.45 424.048V396.08C3027.45 394.459 3028.26 393.648 3029.88 393.648H3098.58C3100.21 393.648 3101.02 394.459 3101.02 396.08V424.048C3101.02 447.152 3095.54 468.027 3084.6 486.672C3074.06 505.317 3059.87 520.315 3042.04 531.664C3024.21 542.608 3004.14 548.08 2981.85 548.08ZM3147.91 542C3146.29 542 3145.48 540.987 3145.48 538.96L3146.69 121.264C3146.69 119.643 3147.5 118.832 3149.12 118.832H3271.94C3293.83 118.832 3313.89 124.304 3332.13 135.248C3350.78 145.787 3365.57 160.176 3376.52 178.416C3387.46 196.251 3392.93 216.517 3392.93 239.216C3392.93 254.213 3390.7 267.792 3386.24 279.952C3381.79 291.707 3376.52 301.84 3370.44 310.352C3364.36 318.459 3358.88 324.539 3354.02 328.592C3375.91 352.912 3386.85 381.488 3386.85 414.32L3387.46 538.96C3387.46 540.987 3386.45 542 3384.42 542H3315.72C3314.09 542 3313.28 541.392 3313.28 540.176V414.32C3313.28 399.728 3308.01 387.163 3297.48 376.624C3287.34 365.68 3274.78 360.208 3259.78 360.208H3219.65L3219.04 538.96C3219.04 540.987 3218.23 542 3216.61 542H3147.91ZM3219.65 287.248H3271.94C3284.51 287.248 3295.65 282.587 3305.38 273.264C3315.11 263.941 3319.97 252.592 3319.97 239.216C3319.97 226.245 3315.11 215.099 3305.38 205.776C3296.06 196.453 3284.91 191.792 3271.94 191.792H3219.65V287.248ZM3441.22 542C3439.6 542 3438.79 540.987 3438.79 538.96L3439.4 121.264C3439.4 119.643 3440.21 118.832 3441.83 118.832H3637C3638.62 118.832 3639.43 119.845 3639.43 121.872V189.968C3639.43 191.589 3638.62 192.4 3637 192.4H3512.36V287.248H3637C3638.62 287.248 3639.43 288.059 3639.43 289.68L3640.04 358.384C3640.04 360.005 3639.23 360.816 3637.6 360.816H3512.36V467.216H3637.6C3639.23 467.216 3640.04 468.229 3640.04 470.256V539.568C3640.04 541.189 3639.23 542 3637.6 542H3441.22ZM3667.49 538.96L3742.88 121.264C3743.29 119.643 3744.3 118.832 3745.92 118.832H3834.08C3835.71 118.832 3836.72 119.643 3837.12 121.264L3909.48 538.96C3909.88 540.987 3909.07 542 3907.04 542H3839.56C3837.93 542 3836.92 540.987 3836.52 538.96L3829.83 494.576H3747.14L3740.45 538.96C3740.05 540.987 3739.03 542 3737.41 542H3669.92C3668.3 542 3667.49 540.987 3667.49 538.96ZM3759.3 429.52H3817.67L3792.74 258.672L3789.09 236.176L3786.66 258.672L3759.3 429.52ZM3979.34 542C3977.72 542 3976.91 540.987 3976.91 538.96V192.4H3897.87C3895.84 192.4 3894.83 191.387 3894.83 189.36L3895.43 121.264C3895.43 119.643 3896.25 118.832 3897.87 118.832H4128.91C4130.93 118.832 4131.95 119.643 4131.95 121.264V189.36C4131.95 191.387 4131.14 192.4 4129.51 192.4H4049.87L4050.47 538.96C4050.47 540.987 4049.66 542 4048.04 542H3979.34ZM4165.02 542C4162.99 542 4161.98 540.987 4161.98 538.96L4162.58 121.264C4162.58 119.643 4163.39 118.832 4165.02 118.832H4233.11C4234.73 118.832 4235.54 119.643 4235.54 121.264L4236.15 538.96C4236.15 540.987 4235.34 542 4233.72 542H4165.02ZM4357.73 542C4356.11 542 4355.09 540.987 4354.69 538.96L4270.78 121.264C4270.38 119.643 4271.19 118.832 4273.22 118.832H4341.92C4343.54 118.832 4344.56 119.643 4344.96 121.264L4394.82 399.728L4443.46 121.264C4443.86 119.643 4444.88 118.832 4446.5 118.832H4514.59C4516.62 118.832 4517.43 119.643 4517.02 121.264L4434.34 538.96C4433.93 540.987 4432.92 542 4431.3 542H4357.73ZM4555.1 542C4553.47 542 4552.66 540.987 4552.66 538.96L4553.27 121.264C4553.27 119.643 4554.08 118.832 4555.7 118.832H4750.87C4752.49 118.832 4753.3 119.845 4753.3 121.872V189.968C4753.3 191.589 4752.49 192.4 4750.87 192.4H4626.23V287.248H4750.87C4752.49 287.248 4753.3 288.059 4753.3 289.68L4753.91 358.384C4753.91 360.005 4753.1 360.816 4751.48 360.816H4626.23V467.216H4751.48C4753.1 467.216 4753.91 468.229 4753.91 470.256V539.568C4753.91 541.189 4753.1 542 4751.48 542H4555.1Z" fill="white"/>
<path d="M1160.27 933.117H1136.43V655.082L1044.89 933.117H1023.17L932.055 655.082V933.117H908.637V634.219H947.809L1034.67 900.332L1120.68 634.219H1160.27V933.117ZM1317.81 657.637L1270.55 814.324H1365.07L1317.81 657.637ZM1333.57 634.219L1428.52 933.117H1400.84L1372.31 837.316H1263.74L1234.79 933.117H1207.54L1302.48 634.219H1333.57ZM1647.37 718.098C1647.37 731.439 1644.39 743.361 1638.43 753.863C1632.46 764.366 1625.37 772.456 1617.14 778.133C1609.19 783.81 1598.4 788.493 1584.78 792.184C1607.2 802.686 1622.53 820.001 1630.76 844.129C1640.41 871.379 1648.08 901.042 1653.75 933.117H1626.08C1619.27 884.578 1609.76 851.367 1597.55 833.484C1582.79 812.763 1567.6 802.402 1551.99 802.402H1525.59V778.133H1550.29C1558.24 778.133 1566.33 777.139 1574.56 775.152C1582.79 773.165 1590.45 769.901 1597.55 765.359C1604.08 760.818 1609.61 754.431 1614.16 746.199C1618.98 737.684 1621.39 728.316 1621.39 718.098C1621.39 707.027 1618.98 697.518 1614.16 689.57C1609.61 681.339 1603.8 674.81 1596.7 669.984C1589.6 665.727 1581.94 662.462 1573.71 660.191C1565.48 657.921 1556.96 656.785 1548.16 656.785H1502.18V933.117H1476.2V634.219H1549.86C1561.79 634.219 1573.57 635.78 1585.2 638.902C1596.84 642.025 1607.06 646.708 1615.86 652.953C1625.23 659.766 1632.75 668.281 1638.43 678.5C1644.39 688.435 1647.37 701.634 1647.37 718.098ZM1885.38 933.117H1852.59L1729.12 786.648V933.117H1704V634.219H1729.12V768.34L1844.93 634.219H1874.73L1754.24 774.301L1885.38 933.117ZM2081.24 933.117H1930.51V634.219H2077.83V657.211H1956.48V764.934H2072.72V788.352H1956.48V909.699H2081.24V933.117ZM2322.23 657.211H2234.95V933.117H2208.97V657.211H2121.69V634.219H2322.23V657.211ZM2398.87 933.117H2372.9V634.219H2398.87V933.117ZM2653.06 933.117H2619.85L2492.12 664.023V933.117H2467.85V634.219H2500.63L2628.79 905.441V634.219H2653.06V933.117ZM2917.47 710.859H2888.95C2888.95 702.344 2887.1 694.112 2883.41 686.164C2880 678.216 2875.18 671.688 2868.93 666.578C2863.26 661.753 2856.73 658.062 2849.35 655.508C2841.97 652.669 2834.45 651.108 2826.78 650.824C2814.29 650.824 2802.37 653.521 2791.02 658.914C2779.95 664.307 2770.01 672.681 2761.21 684.035C2752.41 695.105 2745.6 709.298 2740.77 726.613C2736.23 743.928 2733.96 761.102 2733.96 778.133C2733.96 789.203 2735.24 802.544 2737.79 818.156C2740.35 833.768 2745.46 848.954 2753.12 863.715C2759.93 877.624 2770.58 889.829 2785.05 900.332C2799.53 910.551 2816.56 915.66 2836.15 915.66C2847.22 915.66 2857.86 914.241 2868.08 911.402C2878.3 908.564 2885.11 906.009 2888.52 903.738V800.273H2821.67V776.855H2914.92V917.363C2903 923.892 2890.08 929.001 2876.17 932.691C2862.55 936.098 2846.65 937.801 2828.48 937.801C2808.61 937.801 2790.73 933.117 2774.84 923.75C2758.94 914.383 2745.88 902.319 2735.66 887.559C2725.16 872.23 2717.64 855.199 2713.1 836.465C2708.84 817.447 2706.71 798.003 2706.71 778.133C2706.71 758.263 2708.98 739.529 2713.52 721.93C2718.35 704.047 2725.87 688.151 2736.09 674.242C2746.02 660.901 2758.51 649.973 2773.56 641.457C2788.6 632.941 2806.34 628.684 2826.78 628.684C2839.27 628.684 2850.91 630.812 2861.7 635.07C2872.77 639.328 2882.27 645.005 2890.22 652.102C2898.17 659.766 2904.7 668.707 2909.81 678.926C2914.92 689.145 2917.47 699.789 2917.47 710.859ZM3358.58 932.691H3327.5L3293.01 886.707C3279.1 900.616 3264.63 912.112 3249.58 921.195C3241.92 925.737 3233.54 929.569 3224.46 932.691C3215.38 935.53 3205.87 937.091 3195.93 937.375C3180.32 938.227 3165.14 934.678 3150.38 926.73C3135.9 918.499 3124.97 906.577 3117.59 890.965C3111.35 877.056 3109.5 861.87 3112.05 845.406C3114.89 828.659 3121.85 814.324 3132.92 802.402C3145.12 789.345 3156.34 779.268 3166.55 772.172C3176.77 765.076 3184.86 759.115 3190.82 754.289C3178.33 738.393 3169.54 725.904 3164.43 716.82C3159.6 707.453 3156.76 698.228 3155.91 689.145C3155.06 681.197 3156.05 673.533 3158.89 666.152C3162.01 658.488 3166.13 652.102 3171.24 646.992C3176.92 641.315 3183.73 636.773 3191.68 633.367C3199.62 629.961 3208.42 628.258 3218.07 628.258C3225.45 628.258 3232.98 629.393 3240.64 631.664C3248.59 633.651 3255.54 636.915 3261.5 641.457C3267.75 645.715 3272.72 651.392 3276.41 658.488C3280.38 665.585 3282.51 673.958 3282.79 683.609C3283.08 692.693 3280.1 702.202 3273.85 712.137C3267.89 722.072 3260.08 731.013 3250.43 738.961C3245.61 742.935 3241.21 746.341 3237.23 749.18C3233.54 752.018 3229.57 755.141 3225.31 758.547L3295.99 850.941L3328.78 811.344L3346.66 827.523L3310.04 868.398L3358.58 932.691ZM3257.25 681.055C3257.25 671.12 3253.27 662.888 3245.32 656.359C3237.38 649.547 3228.43 646.141 3218.5 646.141C3208.85 646.141 3200.48 649.831 3193.38 657.211C3186.28 664.307 3182.73 673.107 3182.73 683.609C3182.73 693.544 3185.86 703.763 3192.1 714.266C3198.35 724.484 3204.45 733.568 3210.41 741.516C3216.65 738.393 3223.61 733.142 3231.27 725.762C3236.95 720.936 3242.63 714.691 3248.3 707.027C3254.27 699.363 3257.25 690.706 3257.25 681.055ZM3279.39 869.25L3204.88 772.172C3185.86 784.378 3169.11 798.57 3154.63 814.75C3147.82 822.698 3142.85 832.917 3139.73 845.406C3136.89 857.896 3138.03 870.385 3143.14 882.875C3146.54 892.242 3153.21 900.474 3163.15 907.57C3173.08 914.383 3183.59 917.931 3194.66 918.215C3207.15 918.499 3221.2 914.099 3236.81 905.016C3252.7 895.648 3266.9 883.727 3279.39 869.25ZM3568.49 657.211V909.699H3602.13C3608.66 909.699 3616.18 909.415 3624.7 908.848C3633.21 908.28 3640.31 907.286 3645.98 905.867C3653.36 903.596 3660.89 899.622 3668.55 893.945C3676.21 888.268 3683.45 880.178 3690.27 869.676C3696.51 859.741 3701.76 847.819 3706.02 833.91C3710.28 820.001 3712.41 803.254 3712.41 783.668C3712.41 763.798 3710.28 746.909 3706.02 733C3701.76 719.091 3696.51 707.311 3690.27 697.66C3683.45 687.158 3676.21 679.068 3668.55 673.391C3660.89 667.714 3653.36 663.74 3645.98 661.469C3640.31 660.049 3633.21 659.056 3624.7 658.488C3616.18 657.637 3608.66 657.211 3602.13 657.211H3568.49ZM3542.95 634.219H3603.41C3611.35 634.219 3620.01 634.786 3629.38 635.922C3639.03 636.773 3647.4 638.051 3654.5 639.754C3665.57 642.592 3676.07 647.986 3686.01 655.934C3695.94 663.598 3704.74 673.249 3712.41 684.887C3720.35 695.673 3726.74 709.44 3731.57 726.188C3736.39 742.935 3738.8 762.095 3738.8 783.668C3738.8 804.957 3736.39 824.117 3731.57 841.148C3726.74 857.896 3720.35 871.663 3712.41 882.449C3704.74 894.087 3695.94 903.88 3686.01 911.828C3676.07 919.492 3665.57 924.602 3654.5 927.156C3647.4 928.859 3639.03 930.279 3629.38 931.414C3620.01 932.549 3611.35 933.117 3603.41 933.117H3542.95V634.219ZM3945.73 933.117H3795.01V634.219H3942.33V657.211H3820.98V764.934H3937.22V788.352H3820.98V909.699H3945.73V933.117ZM4156.5 853.922C4156.5 882.591 4147.55 903.738 4129.67 917.363C4112.07 930.988 4088.09 937.801 4057.71 937.801C4046.08 937.801 4034.01 936.382 4021.52 933.543C4009.32 930.421 3999.95 927.866 3993.42 925.879V898.629C3997.4 900.332 4004.92 903.029 4015.99 906.719C4022.52 908.706 4029.61 910.693 4037.28 912.68C4045.23 914.383 4053.17 915.234 4061.12 915.234C4069.64 915.234 4077.58 914.241 4084.96 912.254C4092.63 910.267 4099.58 907.286 4105.83 903.312C4112.36 899.339 4117.89 893.661 4122.43 886.281C4127.26 878.617 4129.67 869.676 4129.67 859.457C4129.67 842.71 4122.72 828.091 4108.81 815.602C4097.74 805.667 4086.1 797.719 4073.89 791.758C4065.38 786.932 4056.15 781.823 4046.22 776.43C4036.57 771.036 4027.48 764.792 4018.97 757.695C4010.45 750.599 4003.64 742.793 3998.53 734.277C3993.42 725.478 3990.87 715.401 3990.87 704.047C3990.87 677.932 3998.67 658.914 4014.29 646.992C4030.18 634.786 4050.62 628.684 4075.6 628.684C4081.84 628.684 4088.23 629.251 4094.76 630.387C4101.29 631.522 4107.53 632.799 4113.49 634.219C4124.28 636.773 4132.65 639.186 4138.61 641.457V664.875C4137.19 664.307 4129.25 661.753 4114.77 657.211C4100.29 652.385 4085.96 649.973 4071.77 649.973C4056.72 649.973 4043.81 654.372 4033.02 663.172C4022.52 671.971 4017.27 684.745 4017.27 701.492C4017.27 708.021 4018.83 713.982 4021.95 719.375C4025.36 724.768 4029.05 729.736 4033.02 734.277C4037.85 738.535 4043.1 742.651 4048.77 746.625C4054.45 750.315 4060.13 753.863 4065.8 757.27C4085.96 767.772 4100.86 776.43 4110.51 783.242C4120.16 789.771 4128.25 796.158 4134.78 802.402C4149.26 817.163 4156.5 834.336 4156.5 853.922ZM4235.69 933.117H4209.72V634.219H4235.69V933.117ZM4501.8 710.859H4473.28C4473.28 702.344 4471.43 694.112 4467.74 686.164C4464.34 678.216 4459.51 671.688 4453.27 666.578C4447.59 661.753 4441.06 658.062 4433.68 655.508C4426.3 652.669 4418.78 651.108 4411.11 650.824C4398.62 650.824 4386.7 653.521 4375.35 658.914C4364.28 664.307 4354.34 672.681 4345.54 684.035C4336.74 695.105 4329.93 709.298 4325.11 726.613C4320.56 743.928 4318.29 761.102 4318.29 778.133C4318.29 789.203 4319.57 802.544 4322.12 818.156C4324.68 833.768 4329.79 848.954 4337.45 863.715C4344.27 877.624 4354.91 889.829 4369.39 900.332C4383.86 910.551 4400.89 915.66 4420.48 915.66C4431.55 915.66 4442.2 914.241 4452.41 911.402C4462.63 908.564 4469.45 906.009 4472.85 903.738V800.273H4406V776.855H4499.25V917.363C4487.33 923.892 4474.41 929.001 4460.5 932.691C4446.88 936.098 4430.98 937.801 4412.82 937.801C4392.95 937.801 4375.06 933.117 4359.17 923.75C4343.27 914.383 4330.21 902.319 4320 887.559C4309.49 872.23 4301.97 855.199 4297.43 836.465C4293.17 817.447 4291.04 798.003 4291.04 778.133C4291.04 758.263 4293.31 739.529 4297.86 721.93C4302.68 704.047 4310.2 688.151 4320.42 674.242C4330.36 660.901 4342.85 649.973 4357.89 641.457C4372.93 632.941 4390.68 628.684 4411.11 628.684C4423.6 628.684 4435.24 630.812 4446.03 635.07C4457.1 639.328 4466.61 645.005 4474.55 652.102C4482.5 659.766 4489.03 668.707 4494.14 678.926C4499.25 689.145 4501.8 699.789 4501.8 710.859ZM4750.89 933.117H4717.68L4589.94 664.023V933.117H4565.67V634.219H4598.46L4726.62 905.441V634.219H4750.89V933.117Z" fill="#E63946"/>
</g>
<defs>
<filter id="filter0_d" x="0.052002" y="86.9999" width="4762.86" height="913.502" filterUnits="userSpaceOnUse" color-interpolation-filters="sRGB">
<feFlood flood-opacity="0" result="BackgroundImageFix"/>
<feColorMatrix in="SourceAlpha" type="matrix" values="0 0 0 0 0 0 0 0 0 0 0 0 0 0 0 0 0 0 127 0"/>
<feOffset dx="5" dy="5"/>
<feGaussianBlur stdDeviation="2"/>
<feColorMatrix type="matrix" values="0 0 0 0 0.345833 0 0 0 0 0.213264 0 0 0 0 0.213264 0 0 0 0.25 0"/>
<feBlend mode="normal" in2="BackgroundImageFix" result="effect1_dropShadow"/>
<feBlend mode="normal" in="SourceGraphic" in2="effect1_dropShadow" result="shape"/>
</filter>
</defs>
</svg>
