<svg width="4810" height="1053" viewBox="0 0 4810 1053" fill="none" xmlns="http://www.w3.org/2000/svg">
<path d="M852.36 542C850.333 542 849.32 540.987 849.32 538.96L850.536 121.264C850.536 119.643 851.347 118.832 852.968 118.832H969.704C1006.99 118.832 1036.38 130.181 1057.86 152.88C1079.75 175.579 1090.7 206.384 1090.7 245.296C1090.7 274.075 1085.02 299.003 1073.67 320.08C1062.32 341.157 1047.53 357.371 1029.29 368.72C1011.05 380.069 991.187 385.744 969.704 385.744H923.496V538.96C923.496 540.987 922.483 542 920.456 542H852.36ZM923.496 312.176H969.704C982.675 312.176 993.821 306.096 1003.14 293.936C1012.87 281.371 1017.74 265.157 1017.74 245.296C1017.74 229.488 1013.48 216.517 1004.97 206.384C996.456 196.251 984.701 191.184 969.704 191.184L923.496 191.792V312.176ZM1076.24 538.96L1151.63 121.264C1152.04 119.643 1153.05 118.832 1154.67 118.832H1242.83C1244.46 118.832 1245.47 119.643 1245.87 121.264L1318.23 538.96C1318.63 540.987 1317.82 542 1315.79 542H1248.31C1246.68 542 1245.67 540.987 1245.27 538.96L1238.58 494.576H1155.89L1149.2 538.96C1148.8 540.987 1147.78 542 1146.16 542H1078.67C1077.05 542 1076.24 540.987 1076.24 538.96ZM1168.05 429.52H1226.42L1201.49 258.672L1197.84 236.176L1195.41 258.672L1168.05 429.52ZM1358.81 542C1357.19 542 1356.38 540.987 1356.38 538.96L1357.6 121.264C1357.6 119.643 1358.41 118.832 1360.03 118.832H1482.85C1504.73 118.832 1524.8 124.304 1543.04 135.248C1561.68 145.787 1576.48 160.176 1587.42 178.416C1598.37 196.251 1603.84 216.517 1603.84 239.216C1603.84 254.213 1601.61 267.792 1597.15 279.952C1592.69 291.707 1587.42 301.84 1581.34 310.352C1575.26 318.459 1569.79 324.539 1564.93 328.592C1586.81 352.912 1597.76 381.488 1597.76 414.32L1598.37 538.96C1598.37 540.987 1597.35 542 1595.33 542H1526.62C1525 542 1524.19 541.392 1524.19 540.176V414.32C1524.19 399.728 1518.92 387.163 1508.38 376.624C1498.25 365.68 1485.68 360.208 1470.69 360.208H1430.56L1429.95 538.96C1429.95 540.987 1429.14 542 1427.52 542H1358.81ZM1430.56 287.248H1482.85C1495.41 287.248 1506.56 282.587 1516.29 273.264C1526.01 263.941 1530.88 252.592 1530.88 239.216C1530.88 226.245 1526.01 215.099 1516.29 205.776C1506.96 196.453 1495.82 191.792 1482.85 191.792H1430.56V287.248ZM1629.02 538.96L1704.42 121.264C1704.82 119.643 1705.83 118.832 1707.46 118.832H1795.62C1797.24 118.832 1798.25 119.643 1798.66 121.264L1871.01 538.96C1871.41 540.987 1870.6 542 1868.58 542H1801.09C1799.47 542 1798.45 540.987 1798.05 538.96L1791.36 494.576H1708.67L1701.98 538.96C1701.58 540.987 1700.56 542 1698.94 542H1631.46C1629.83 542 1629.02 540.987 1629.02 538.96ZM1720.83 429.52H1779.2L1754.27 258.672L1750.62 236.176L1748.19 258.672L1720.83 429.52ZM2007.37 548.08C1985.48 548.08 1965.62 542.608 1947.78 531.664C1929.95 520.72 1915.56 506.128 1904.61 487.888C1894.07 469.243 1888.81 448.571 1888.81 425.872V233.136C1888.81 211.248 1894.07 191.184 1904.61 172.944C1915.56 154.299 1929.95 139.504 1947.78 128.56C1966.02 117.616 1985.88 112.144 2007.37 112.144C2029.66 112.144 2049.72 117.616 2067.56 128.56C2085.8 139.099 2100.19 153.488 2110.73 171.728C2121.26 189.968 2126.53 210.437 2126.53 233.136V261.104C2126.53 262.725 2125.52 263.536 2123.49 263.536H2055.4C2053.78 263.536 2052.97 262.725 2052.97 261.104V238C2052.97 222.597 2048.51 209.829 2039.59 199.696C2031.08 189.563 2020.34 184.496 2007.37 184.496C1995.61 184.496 1985.07 189.36 1975.75 199.088C1966.83 208.816 1962.37 220.165 1962.37 233.136V425.872C1962.37 439.248 1966.83 450.8 1975.75 460.528C1984.67 469.851 1995.21 474.512 2007.37 474.512C2020.34 474.512 2031.08 469.851 2039.59 460.528C2048.51 451.205 2052.97 439.653 2052.97 425.872V396.08H2010.41C2008.38 396.08 2007.37 395.067 2007.37 393.04V324.944C2007.37 322.917 2008.38 321.904 2010.41 321.904H2124.1C2125.72 321.904 2126.53 322.917 2126.53 324.944V425.872C2126.53 448.571 2121.06 469.243 2110.12 487.888C2099.58 506.128 2085.39 520.72 2067.56 531.664C2049.72 542.608 2029.66 548.08 2007.37 548.08ZM2282.3 548.08C2260.41 548.08 2240.35 542.608 2222.11 531.664C2204.27 520.315 2189.88 505.52 2178.94 487.28C2168 468.635 2162.52 448.165 2162.52 425.872L2163.13 233.136C2163.13 210.843 2168.4 190.576 2178.94 172.336C2189.88 154.096 2204.48 139.504 2222.72 128.56C2240.96 117.616 2260.82 112.144 2282.3 112.144C2304.19 112.144 2324.05 117.616 2341.88 128.56C2359.72 139.504 2373.91 154.096 2384.44 172.336C2395.39 190.576 2400.86 210.843 2400.86 233.136L2401.47 425.872C2401.47 448.165 2396 468.635 2385.05 487.28C2374.51 505.52 2360.12 520.315 2341.88 531.664C2324.05 542.608 2304.19 548.08 2282.3 548.08ZM2282.3 474.512C2294.46 474.512 2305 469.648 2313.92 459.92C2323.24 449.787 2327.9 438.437 2327.9 425.872L2327.29 233.136C2327.29 219.76 2323.04 208.411 2314.52 199.088C2306.01 189.765 2295.27 185.104 2282.3 185.104C2269.73 185.104 2258.99 189.765 2250.08 199.088C2241.16 208.005 2236.7 219.355 2236.7 233.136V425.872C2236.7 439.248 2241.16 450.8 2250.08 460.528C2258.99 469.851 2269.73 474.512 2282.3 474.512ZM2453.17 542C2449.92 542 2448.3 540.581 2448.3 537.744L2447.7 123.696C2447.7 120.453 2449.32 118.832 2452.56 118.832H2507.28L2610.03 358.384L2606.99 123.696C2606.99 120.453 2608.82 118.832 2612.46 118.832H2672.66C2675.09 118.832 2676.3 120.453 2676.3 123.696L2676.91 538.352C2676.91 540.784 2675.9 542 2673.87 542H2620.37L2515.18 318.256L2519.44 537.136C2519.44 540.379 2517.62 542 2513.97 542H2453.17ZM2931.85 548.08C2909.55 548.08 2889.29 542.608 2871.05 531.664C2853.21 520.315 2839.03 505.317 2828.49 486.672C2817.95 468.027 2812.68 447.152 2812.68 424.048L2813.29 234.352C2813.29 212.059 2818.35 191.792 2828.49 173.552C2839.03 154.907 2853.21 140.112 2871.05 129.168C2889.29 117.819 2909.55 112.144 2931.85 112.144C2954.14 112.144 2974.21 117.616 2992.04 128.56C3009.87 139.504 3024.06 154.299 3034.6 172.944C3045.14 191.184 3050.41 211.653 3050.41 234.352V262.32C3050.41 263.941 3049.6 264.752 3047.98 264.752H2979.88C2978.26 264.752 2977.45 263.941 2977.45 262.32V234.352C2977.45 220.976 2972.99 209.424 2964.07 199.696C2955.56 189.968 2944.82 185.104 2931.85 185.104C2917.26 185.104 2906.11 190.171 2898.41 200.304C2890.71 210.032 2886.86 221.381 2886.86 234.352V424.048C2886.86 439.045 2891.11 451.205 2899.62 460.528C2908.54 469.851 2919.28 474.512 2931.85 474.512C2944.82 474.512 2955.56 469.445 2964.07 459.312C2972.99 448.773 2977.45 437.019 2977.45 424.048V396.08C2977.45 394.459 2978.26 393.648 2979.88 393.648H3048.58C3050.21 393.648 3051.02 394.459 3051.02 396.08V424.048C3051.02 447.152 3045.54 468.027 3034.6 486.672C3024.06 505.317 3009.87 520.315 2992.04 531.664C2974.21 542.608 2954.14 548.08 2931.85 548.08ZM3097.91 542C3096.29 542 3095.48 540.987 3095.48 538.96L3096.69 121.264C3096.69 119.643 3097.5 118.832 3099.12 118.832H3221.94C3243.83 118.832 3263.89 124.304 3282.13 135.248C3300.78 145.787 3315.57 160.176 3326.52 178.416C3337.46 196.251 3342.93 216.517 3342.93 239.216C3342.93 254.213 3340.7 267.792 3336.24 279.952C3331.79 291.707 3326.52 301.84 3320.44 310.352C3314.36 318.459 3308.88 324.539 3304.02 328.592C3325.91 352.912 3336.85 381.488 3336.85 414.32L3337.46 538.96C3337.46 540.987 3336.45 542 3334.42 542H3265.72C3264.09 542 3263.28 541.392 3263.28 540.176V414.32C3263.28 399.728 3258.01 387.163 3247.48 376.624C3237.34 365.68 3224.78 360.208 3209.78 360.208H3169.65L3169.04 538.96C3169.04 540.987 3168.23 542 3166.61 542H3097.91ZM3169.65 287.248H3221.94C3234.51 287.248 3245.65 282.587 3255.38 273.264C3265.11 263.941 3269.97 252.592 3269.97 239.216C3269.97 226.245 3265.11 215.099 3255.38 205.776C3246.06 196.453 3234.91 191.792 3221.94 191.792H3169.65V287.248ZM3391.22 542C3389.6 542 3388.79 540.987 3388.79 538.96L3389.4 121.264C3389.4 119.643 3390.21 118.832 3391.83 118.832H3587C3588.62 118.832 3589.43 119.845 3589.43 121.872V189.968C3589.43 191.589 3588.62 192.4 3587 192.4H3462.36V287.248H3587C3588.62 287.248 3589.43 288.059 3589.43 289.68L3590.04 358.384C3590.04 360.005 3589.23 360.816 3587.6 360.816H3462.36V467.216H3587.6C3589.23 467.216 3590.04 468.229 3590.04 470.256V539.568C3590.04 541.189 3589.23 542 3587.6 542H3391.22ZM3617.49 538.96L3692.88 121.264C3693.29 119.643 3694.3 118.832 3695.92 118.832H3784.08C3785.71 118.832 3786.72 119.643 3787.12 121.264L3859.48 538.96C3859.88 540.987 3859.07 542 3857.04 542H3789.56C3787.93 542 3786.92 540.987 3786.52 538.96L3779.83 494.576H3697.14L3690.45 538.96C3690.05 540.987 3689.03 542 3687.41 542H3619.92C3618.3 542 3617.49 540.987 3617.49 538.96ZM3709.3 429.52H3767.67L3742.74 258.672L3739.09 236.176L3736.66 258.672L3709.3 429.52ZM3929.34 542C3927.72 542 3926.91 540.987 3926.91 538.96V192.4H3847.87C3845.84 192.4 3844.83 191.387 3844.83 189.36L3845.43 121.264C3845.43 119.643 3846.25 118.832 3847.87 118.832H4078.91C4080.93 118.832 4081.95 119.643 4081.95 121.264V189.36C4081.95 191.387 4081.14 192.4 4079.51 192.4H3999.87L4000.47 538.96C4000.47 540.987 3999.66 542 3998.04 542H3929.34ZM4115.02 542C4112.99 542 4111.98 540.987 4111.98 538.96L4112.58 121.264C4112.58 119.643 4113.39 118.832 4115.02 118.832H4183.11C4184.73 118.832 4185.54 119.643 4185.54 121.264L4186.15 538.96C4186.15 540.987 4185.34 542 4183.72 542H4115.02ZM4307.73 542C4306.11 542 4305.09 540.987 4304.69 538.96L4220.78 121.264C4220.38 119.643 4221.19 118.832 4223.22 118.832H4291.92C4293.54 118.832 4294.56 119.643 4294.96 121.264L4344.82 399.728L4393.46 121.264C4393.86 119.643 4394.88 118.832 4396.5 118.832H4464.59C4466.62 118.832 4467.43 119.643 4467.02 121.264L4384.34 538.96C4383.93 540.987 4382.92 542 4381.3 542H4307.73ZM4505.1 542C4503.47 542 4502.66 540.987 4502.66 538.96L4503.27 121.264C4503.27 119.643 4504.08 118.832 4505.7 118.832H4700.87C4702.49 118.832 4703.3 119.845 4703.3 121.872V189.968C4703.3 191.589 4702.49 192.4 4700.87 192.4H4576.23V287.248H4700.87C4702.49 287.248 4703.3 288.059 4703.3 289.68L4703.91 358.384C4703.91 360.005 4703.1 360.816 4701.48 360.816H4576.23V467.216H4701.48C4703.1 467.216 4703.91 468.229 4703.91 470.256V539.568C4703.91 541.189 4703.1 542 4701.48 542H4505.1Z" fill="#071A31"/>
<path d="M1113.68 936.523H1083.02V671.688L997.867 936.523H970.617L885.461 671.688V936.523H855.23V630.812H900.363L984.668 888.836L1067.7 630.812H1113.68V936.523ZM1383.2 936.523H1348.29L1319.33 841.148H1216.29L1187.34 936.523H1152.43L1249.93 630.812H1286.12L1383.2 936.523ZM1310.39 810.918L1268.24 669.984L1225.23 810.918H1310.39ZM1600.77 718.098C1600.77 732.007 1597.65 744.496 1591.41 755.566C1585.16 766.637 1577.64 775.152 1568.84 781.113C1560.89 786.507 1552.52 790.48 1543.72 793.035C1562.74 802.686 1576.36 819.292 1584.59 842.852C1593.96 870.385 1601.77 901.609 1608.01 936.523H1573.1C1565.72 886.565 1556.07 852.928 1544.14 835.613C1530.52 816.027 1515.62 806.234 1499.44 806.234H1471.76V774.727H1499.01C1507.53 774.727 1515.76 773.875 1523.71 772.172C1531.65 770.185 1538.75 766.921 1545 762.379C1551.52 758.121 1556.92 752.16 1561.18 744.496C1565.72 736.548 1567.99 727.749 1567.99 718.098C1567.99 707.595 1565.72 698.654 1561.18 691.273C1556.92 683.609 1551.38 677.507 1544.57 672.965C1538.04 668.707 1530.8 665.585 1522.86 663.598C1514.91 661.611 1506.82 660.617 1498.59 660.617H1455.58V936.523H1422.8V630.812H1499.44C1511.93 630.812 1524.13 632.516 1536.05 635.922C1547.98 639.044 1558.62 643.728 1567.99 649.973C1577.64 657.069 1585.45 666.01 1591.41 676.797C1597.65 687.299 1600.77 701.066 1600.77 718.098ZM1842.62 936.523H1800.89L1682.52 791.758V936.523H1650.59V630.812H1682.52V762.805L1793.23 630.812H1832.4L1712.75 774.301L1842.62 936.523ZM2034.64 936.523H1877.11V630.812H2031.24V661.043H1909.89V761.527H2026.13V791.758H1909.89V906.293H2034.64V936.523ZM2275.64 661.043H2188.35V936.523H2155.14V661.043H2068.28V630.812H2275.64V661.043ZM2352.7 936.523H2319.49V630.812H2352.7V936.523ZM2606.47 936.523H2567.72L2445.52 678.074V936.523H2414.44V630.812H2452.76L2575.39 889.688V630.812H2606.47V936.523ZM2870.88 714.691H2835.54C2835.54 704.189 2833.69 695.247 2830 687.867C2826.6 680.203 2822.2 673.958 2816.8 669.133C2811.13 664.591 2804.74 661.043 2797.64 658.488C2790.83 655.934 2783.88 654.514 2776.78 654.23C2764.86 654.23 2753.51 656.785 2742.72 661.895C2731.93 667.004 2722.28 675.094 2713.77 686.164C2705.53 696.951 2699.01 710.859 2694.18 727.891C2689.64 744.638 2687.37 761.385 2687.37 778.133C2687.37 788.919 2688.64 801.977 2691.2 817.305C2693.75 832.349 2698.72 847.251 2706.1 862.012C2712.63 875.637 2722.42 887.417 2735.48 897.352C2748.82 907.003 2765.71 911.828 2786.15 911.828C2796.93 911.828 2807.3 910.551 2817.23 907.996C2827.17 905.441 2833.13 903.454 2835.11 902.035V804.105H2768.27V773.449H2868.32V919.492C2854.98 926.589 2841.22 931.982 2827.02 935.672C2813.11 939.362 2796.93 941.207 2778.48 941.207C2756.34 941.207 2737.33 936.382 2721.43 926.73C2705.82 917.079 2692.9 904.59 2682.68 889.262C2672.18 873.65 2664.66 856.335 2660.12 837.316C2655.58 818.014 2653.3 798.286 2653.3 778.133C2653.3 757.979 2655.72 738.819 2660.54 720.652C2665.37 702.202 2673.03 686.022 2683.54 672.113C2693.47 658.488 2706.24 647.276 2721.86 638.477C2737.47 629.677 2755.78 625.277 2776.78 625.277C2789.55 625.277 2801.62 627.406 2812.97 631.664C2824.33 635.922 2834.12 641.883 2842.35 649.547C2850.87 657.495 2857.68 666.862 2862.79 677.648C2868.18 688.151 2870.88 700.499 2870.88 714.691ZM3315.82 936.098H3275.8L3242.59 891.816C3230.38 904.022 3216.76 914.809 3201.71 924.176C3193.48 929.001 3184.68 932.975 3175.31 936.098C3165.95 938.936 3156.15 940.497 3145.93 940.781C3129.75 941.633 3114 937.943 3098.67 929.711C3083.63 921.195 3072.27 908.706 3064.61 892.242C3057.8 877.766 3055.81 861.87 3058.65 844.555C3061.49 827.24 3068.73 812.479 3080.36 800.273C3092.85 786.932 3104.21 776.714 3114.43 769.617C3124.64 762.521 3131.88 757.27 3136.14 753.863C3124.79 739.671 3116.55 727.749 3111.45 718.098C3106.34 708.447 3103.36 698.938 3102.5 689.57C3101.65 680.771 3102.79 672.539 3105.91 664.875C3109.03 656.927 3113.29 650.115 3118.68 644.438C3124.64 638.477 3131.74 633.793 3139.97 630.387C3148.49 626.697 3157.86 624.852 3168.07 624.852C3175.74 624.852 3183.69 625.987 3191.92 628.258C3200.15 630.529 3207.39 633.935 3213.63 638.477C3220.16 643.302 3225.41 649.547 3229.39 657.211C3233.64 664.591 3235.92 673.391 3236.2 683.609C3236.48 693.26 3233.36 703.337 3226.83 713.84C3220.59 724.059 3212.64 733.284 3202.99 741.516C3197.88 745.49 3193.48 748.896 3189.79 751.734C3186.1 754.573 3182.83 756.986 3180 758.973L3245.99 845.406L3278.35 806.66L3301.34 827.098L3264.3 868.398L3315.82 936.098ZM3203.84 681.055C3203.84 672.255 3200.29 664.449 3193.2 657.637C3186.1 650.824 3177.87 647.418 3168.5 647.418C3159.42 647.418 3151.75 651.108 3145.51 658.488C3139.26 665.585 3136.14 673.958 3136.14 683.609C3136.14 692.977 3139.12 702.77 3145.08 712.988C3151.33 722.923 3156.72 731.013 3161.26 737.258C3165.52 734.987 3171.48 730.303 3179.14 723.207C3184.54 718.665 3189.93 712.704 3195.32 705.324C3201 697.66 3203.84 689.57 3203.84 681.055ZM3225.13 869.25L3154.02 776.855C3137.28 787.642 3121.66 800.983 3107.19 816.879C3100.66 824.543 3095.98 834.336 3093.14 846.258C3090.3 857.896 3091.29 869.676 3096.12 881.598C3099.52 890.113 3105.91 897.777 3115.28 904.59C3124.93 911.118 3134.72 914.525 3144.66 914.809C3156.58 915.092 3170.2 910.835 3185.53 902.035C3200.86 892.952 3214.06 882.023 3225.13 869.25ZM3521.9 661.043V906.293H3552.98C3558.94 906.293 3566.04 906.009 3574.27 905.441C3582.79 904.874 3589.6 903.88 3594.71 902.461C3601.8 900.474 3609.04 896.784 3616.42 891.391C3623.8 885.714 3630.76 877.908 3637.29 867.973C3643.53 858.322 3648.64 846.684 3652.61 833.059C3656.87 819.434 3659 802.97 3659 783.668C3659 764.082 3656.87 747.618 3652.61 734.277C3648.64 720.652 3643.53 709.014 3637.29 699.363C3630.76 689.428 3623.8 681.764 3616.42 676.371C3609.04 670.694 3601.8 666.862 3594.71 664.875C3589.6 663.456 3582.79 662.462 3574.27 661.895C3566.04 661.327 3558.94 661.043 3552.98 661.043H3521.9ZM3489.54 630.812H3552.98C3561.21 630.812 3570.15 631.38 3579.8 632.516C3589.46 633.367 3597.97 634.645 3605.35 636.348C3616.99 639.47 3627.92 645.005 3638.14 652.953C3648.36 660.901 3657.44 670.836 3665.39 682.758C3673.33 694.112 3679.72 708.305 3684.55 725.336C3689.66 742.367 3692.21 761.811 3692.21 783.668C3692.21 805.241 3689.66 824.685 3684.55 842C3679.72 859.031 3673.33 873.224 3665.39 884.578C3657.44 896.5 3648.36 906.435 3638.14 914.383C3627.92 922.331 3616.99 927.724 3605.35 930.562C3597.97 932.549 3589.46 934.111 3579.8 935.246C3570.15 936.098 3561.21 936.523 3552.98 936.523H3489.54V630.812ZM3899.14 936.523H3741.6V630.812H3895.73V661.043H3774.39V761.527H3890.62V791.758H3774.39V906.293H3899.14V936.523ZM4109.9 853.922C4109.9 883.727 4100.68 905.725 4082.23 919.918C4063.78 934.111 4038.94 941.207 4007.71 941.207C3995.79 941.207 3983.59 939.788 3971.1 936.949C3958.61 934.111 3948.25 931.272 3940.02 928.434V892.668C3947.11 896.358 3956.2 899.906 3967.27 903.312C3973.51 905.299 3980.46 907.145 3988.13 908.848C3995.79 910.551 4003.46 911.402 4011.12 911.402C4019.35 911.402 4027.02 910.551 4034.11 908.848C4041.49 907.145 4048.16 904.306 4054.12 900.332C4060.09 896.358 4065.2 890.965 4069.45 884.152C4073.99 877.34 4076.27 869.108 4076.27 859.457C4076.27 849.806 4074.28 841.716 4070.3 835.188C4066.33 828.659 4061.65 822.982 4056.25 818.156C4045.47 808.789 4034.11 800.983 4022.19 794.738C4013.68 790.197 4004.45 785.229 3994.52 779.836C3984.58 774.159 3975.36 767.63 3966.84 760.25C3958.04 753.154 3950.94 745.064 3945.55 735.98C3940.16 726.613 3937.46 715.969 3937.46 704.047C3937.46 676.797 3945.69 656.927 3962.16 644.438C3978.62 631.664 3999.77 625.277 4025.6 625.277C4032.13 625.277 4038.65 625.845 4045.18 626.98C4052 628.116 4058.38 629.393 4064.34 630.812C4075.13 633.367 4084.36 635.922 4092.02 638.477V670.836C4087.48 668.281 4078.11 664.733 4063.92 660.191C4049.73 655.65 4035.82 653.379 4022.19 653.379C4007.71 653.379 3995.51 657.637 3985.57 666.152C3975.64 674.384 3970.67 686.022 3970.67 701.066C3970.67 707.311 3972.09 712.988 3974.93 718.098C3978.05 722.923 3981.74 727.465 3986 731.723C3990.26 735.98 3995.08 739.954 4000.48 743.645C4006.15 747.051 4011.83 750.599 4017.51 754.289C4037.66 764.792 4052.71 773.307 4062.64 779.836C4072.58 786.365 4080.81 792.609 4087.34 798.57C4094.15 804.815 4099.4 812.337 4103.09 821.137C4107.06 829.652 4109.33 840.581 4109.9 853.922ZM4189.52 936.523H4156.31V630.812H4189.52V936.523ZM4455.21 714.691H4419.87C4419.87 704.189 4418.03 695.247 4414.34 687.867C4410.93 680.203 4406.53 673.958 4401.14 669.133C4395.46 664.591 4389.07 661.043 4381.98 658.488C4375.16 655.934 4368.21 654.514 4361.11 654.23C4349.19 654.23 4337.84 656.785 4327.05 661.895C4316.26 667.004 4306.61 675.094 4298.1 686.164C4289.87 696.951 4283.34 710.859 4278.51 727.891C4273.97 744.638 4271.7 761.385 4271.7 778.133C4271.7 788.919 4272.98 801.977 4275.53 817.305C4278.09 832.349 4283.05 847.251 4290.43 862.012C4296.96 875.637 4306.76 887.417 4319.81 897.352C4333.15 907.003 4350.04 911.828 4370.48 911.828C4381.27 911.828 4391.63 910.551 4401.56 907.996C4411.5 905.441 4417.46 903.454 4419.45 902.035V804.105H4352.6V773.449H4452.66V919.492C4439.32 926.589 4425.55 931.982 4411.36 935.672C4397.45 939.362 4381.27 941.207 4362.82 941.207C4340.68 941.207 4321.66 936.382 4305.76 926.73C4290.15 917.079 4277.23 904.59 4267.02 889.262C4256.51 873.65 4248.99 856.335 4244.45 837.316C4239.91 818.014 4237.64 798.286 4237.64 778.133C4237.64 757.979 4240.05 738.819 4244.88 720.652C4249.7 702.202 4257.36 686.022 4267.87 672.113C4277.8 658.488 4290.58 647.276 4306.19 638.477C4321.8 629.677 4340.11 625.277 4361.11 625.277C4373.89 625.277 4385.95 627.406 4397.3 631.664C4408.66 635.922 4418.45 641.883 4426.68 649.547C4435.2 657.495 4442.01 666.862 4447.12 677.648C4452.51 688.151 4455.21 700.499 4455.21 714.691ZM4704.29 936.523H4665.55L4543.35 678.074V936.523H4512.27V630.812H4550.59L4673.21 889.688V630.812H4704.29V936.523Z" fill="#E63946"/>
<path d="M1113.68 936.523V946.523H1123.68V936.523H1113.68ZM1083.02 936.523H1073.02V946.523H1083.02V936.523ZM1083.02 671.688H1093.02L1073.5 668.626L1083.02 671.688ZM997.867 936.523V946.523H1005.16L1007.39 939.585L997.867 936.523ZM970.617 936.523L961.097 939.585L963.328 946.523H970.617V936.523ZM885.461 671.688L894.981 668.626L875.461 671.688H885.461ZM885.461 936.523V946.523H895.461V936.523H885.461ZM855.23 936.523H845.23V946.523H855.23V936.523ZM855.23 630.812V620.812H845.23V630.812H855.23ZM900.363 630.812L909.869 627.707L907.616 620.812H900.363V630.812ZM984.668 888.836L975.162 891.942L984.741 921.257L994.187 891.899L984.668 888.836ZM1067.7 630.812V620.812H1060.41L1058.18 627.749L1067.7 630.812ZM1113.68 630.812H1123.68V620.812H1113.68V630.812ZM1113.68 926.523H1083.02V946.523H1113.68V926.523ZM1093.02 936.523V671.688H1073.02V936.523H1093.02ZM1073.5 668.626L988.347 933.462L1007.39 939.585L1092.54 674.749L1073.5 668.626ZM997.867 926.523H970.617V946.523H997.867V926.523ZM980.137 933.462L894.981 668.626L875.941 674.749L961.097 939.585L980.137 933.462ZM875.461 671.688V936.523H895.461V671.688H875.461ZM885.461 926.523H855.23V946.523H885.461V926.523ZM865.23 936.523V630.812H845.23V936.523H865.23ZM855.23 640.812H900.363V620.812H855.23V640.812ZM890.858 633.918L975.162 891.942L994.173 885.73L909.869 627.707L890.858 633.918ZM994.187 891.899L1077.21 633.876L1058.18 627.749L975.149 885.773L994.187 891.899ZM1067.7 640.812H1113.68V620.812H1067.7V640.812ZM1103.68 630.812V936.523H1123.68V630.812H1103.68ZM1383.2 936.523V946.523H1396.87L1392.73 933.497L1383.2 936.523ZM1348.29 936.523L1338.72 939.428L1340.87 946.523H1348.29V936.523ZM1319.33 841.148L1328.9 838.244L1326.75 831.148H1319.33V841.148ZM1216.29 841.148V831.148H1208.88L1206.72 838.244L1216.29 841.148ZM1187.34 936.523V946.523H1194.75L1196.91 939.428L1187.34 936.523ZM1152.43 936.523L1142.9 933.485L1138.74 946.523H1152.43V936.523ZM1249.93 630.812V620.812H1242.62L1240.4 627.774L1249.93 630.812ZM1286.12 630.812L1295.65 627.786L1293.44 620.812H1286.12V630.812ZM1310.39 810.918V820.918H1323.82L1319.97 808.052L1310.39 810.918ZM1268.24 669.984L1277.82 667.119L1268.33 635.407L1258.67 667.066L1268.24 669.984ZM1225.23 810.918L1215.67 807.999L1211.73 820.918H1225.23V810.918ZM1383.2 926.523H1348.29V946.523H1383.2V926.523ZM1357.85 933.619L1328.9 838.244L1309.76 844.053L1338.72 939.428L1357.85 933.619ZM1319.33 831.148H1216.29V851.148H1319.33V831.148ZM1206.72 838.244L1177.77 933.619L1196.91 939.428L1225.86 844.053L1206.72 838.244ZM1187.34 926.523H1152.43V946.523H1187.34V926.523ZM1161.95 939.562L1259.46 633.851L1240.4 627.774L1142.9 933.485L1161.95 939.562ZM1249.93 640.812H1286.12V620.812H1249.93V640.812ZM1276.59 633.839L1373.67 939.55L1392.73 933.497L1295.65 627.786L1276.59 633.839ZM1319.97 808.052L1277.82 667.119L1258.66 672.85L1300.81 813.783L1319.97 808.052ZM1258.67 667.066L1215.67 807.999L1234.8 813.836L1277.8 672.903L1258.67 667.066ZM1225.23 820.918H1310.39V800.918H1225.23V820.918ZM1568.84 781.113L1563.23 772.834L1563.22 772.839L1568.84 781.113ZM1543.72 793.035L1540.93 783.432L1516.61 790.492L1539.19 801.953L1543.72 793.035ZM1584.59 842.852L1594.06 839.631L1594.05 839.592L1594.03 839.553L1584.59 842.852ZM1608.01 936.523V946.523H1619.96L1617.86 934.763L1608.01 936.523ZM1573.1 936.523L1563.21 937.985L1564.47 946.523H1573.1V936.523ZM1544.14 835.613L1552.38 829.942L1552.37 829.922L1552.35 829.903L1544.14 835.613ZM1471.76 806.234H1461.76V816.234H1471.76V806.234ZM1471.76 774.727V764.727H1461.76V774.727H1471.76ZM1523.71 772.172L1525.8 781.95L1525.97 781.914L1526.13 781.873L1523.71 772.172ZM1545 762.379L1539.53 754.003L1539.32 754.142L1539.11 754.292L1545 762.379ZM1561.18 744.496L1552.49 739.535L1552.46 739.587L1552.43 739.64L1561.18 744.496ZM1561.18 691.273L1552.43 696.13L1552.54 696.325L1552.66 696.514L1561.18 691.273ZM1544.57 672.965L1550.12 664.644L1550.08 664.616L1550.03 664.589L1544.57 672.965ZM1522.86 663.598L1520.43 673.299L1522.86 663.598ZM1455.58 660.617V650.617H1445.58V660.617H1455.58ZM1455.58 936.523V946.523H1465.58V936.523H1455.58ZM1422.8 936.523H1412.8V946.523H1422.8V936.523ZM1422.8 630.812V620.812H1412.8V630.812H1422.8ZM1536.05 635.922L1533.31 645.537L1533.41 645.568L1533.52 645.596L1536.05 635.922ZM1567.99 649.973L1573.91 641.916L1573.73 641.78L1573.54 641.652L1567.99 649.973ZM1591.41 676.797L1582.65 681.634L1582.73 681.772L1582.81 681.908L1591.41 676.797ZM1590.77 718.098C1590.77 730.452 1588.02 741.221 1582.7 750.653L1600.12 760.48C1607.28 747.771 1610.77 733.561 1610.77 718.098H1590.77ZM1582.7 750.653C1577.06 760.638 1570.52 767.894 1563.23 772.834L1574.45 789.392C1584.76 782.411 1593.26 772.635 1600.12 760.48L1582.7 750.653ZM1563.22 772.839C1556.1 777.672 1548.68 781.183 1540.93 783.432L1546.51 802.639C1556.36 799.778 1565.68 795.341 1574.45 789.388L1563.22 772.839ZM1539.19 801.953C1555.52 810.238 1567.62 824.583 1575.15 846.15L1594.03 839.553C1585.11 814.001 1569.95 795.134 1548.24 784.118L1539.19 801.953ZM1575.13 846.072C1584.3 873.04 1591.99 903.762 1598.17 938.284L1617.86 934.763C1611.54 899.457 1603.62 867.731 1594.06 839.631L1575.13 846.072ZM1608.01 926.523H1573.1V946.523H1608.01V926.523ZM1582.99 935.062C1575.62 885.148 1565.76 849.369 1552.38 829.942L1535.91 841.284C1546.38 856.488 1555.82 887.983 1563.21 937.985L1582.99 935.062ZM1552.35 829.903C1537.8 808.979 1520.25 796.234 1499.44 796.234V816.234C1510.99 816.234 1523.24 823.076 1535.94 841.324L1552.35 829.903ZM1499.44 796.234H1471.76V816.234H1499.44V796.234ZM1481.76 806.234V774.727H1461.76V806.234H1481.76ZM1471.76 784.727H1499.01V764.727H1471.76V784.727ZM1499.01 784.727C1508.2 784.727 1517.13 783.807 1525.8 781.95L1521.61 762.394C1514.38 763.943 1506.86 764.727 1499.01 764.727V784.727ZM1526.13 781.873C1535.25 779.594 1543.53 775.808 1550.88 770.466L1539.11 754.292C1533.97 758.033 1528.06 760.776 1521.28 762.47L1526.13 781.873ZM1550.46 770.755C1558.51 765.502 1564.97 758.259 1569.92 749.353L1552.43 739.64C1548.87 746.061 1544.54 750.74 1539.53 754.003L1550.46 770.755ZM1569.86 749.457C1575.31 739.916 1577.99 729.391 1577.99 718.098H1557.99C1557.99 726.107 1556.12 733.181 1552.49 739.535L1569.86 749.457ZM1577.99 718.098C1577.99 706.138 1575.39 695.293 1569.69 686.032L1552.66 696.514C1556.04 702.014 1557.99 709.052 1557.99 718.098H1577.99ZM1569.92 686.417C1564.94 677.461 1558.35 670.132 1550.12 664.644L1539.02 681.285C1544.42 684.881 1548.89 689.757 1552.43 696.13L1569.92 686.417ZM1550.03 664.589C1542.53 659.693 1534.25 656.139 1525.28 653.896L1520.43 673.299C1527.35 675.03 1533.56 677.721 1539.11 681.341L1550.03 664.589ZM1525.28 653.896C1516.54 651.71 1507.63 650.617 1498.59 650.617V670.617C1506 670.617 1513.28 671.511 1520.43 673.299L1525.28 653.896ZM1498.59 650.617H1455.58V670.617H1498.59V650.617ZM1445.58 660.617V936.523H1465.58V660.617H1445.58ZM1455.58 926.523H1422.8V946.523H1455.58V926.523ZM1432.8 936.523V630.812H1412.8V936.523H1432.8ZM1422.8 640.812H1499.44V620.812H1422.8V640.812ZM1499.44 640.812C1511 640.812 1522.29 642.388 1533.31 645.537L1538.8 626.307C1525.98 622.643 1512.85 620.812 1499.44 620.812V640.812ZM1533.52 645.596C1544.47 648.464 1554.08 652.719 1562.44 658.293L1573.54 641.652C1563.16 634.737 1551.48 629.625 1538.59 626.248L1533.52 645.596ZM1562.06 658.029C1570.52 664.244 1577.37 672.075 1582.65 681.634L1600.16 671.96C1593.52 659.946 1584.76 649.894 1573.91 641.916L1562.06 658.029ZM1582.81 681.908C1587.84 690.371 1590.77 702.189 1590.77 718.098H1610.77C1610.77 699.943 1607.46 684.228 1600 671.686L1582.81 681.908ZM1842.62 936.523V946.523H1863.43L1850.42 930.274L1842.62 936.523ZM1800.89 936.523L1793.15 942.853L1796.15 946.523H1800.89V936.523ZM1682.52 791.758L1690.27 785.428L1672.52 763.73V791.758H1682.52ZM1682.52 936.523V946.523H1692.52V936.523H1682.52ZM1650.59 936.523H1640.59V946.523H1650.59V936.523ZM1650.59 630.812V620.812H1640.59V630.812H1650.59ZM1682.52 630.812H1692.52V620.812H1682.52V630.812ZM1682.52 762.805H1672.52V790.289L1690.19 769.231L1682.52 762.805ZM1793.23 630.812V620.812H1788.56L1785.56 624.386L1793.23 630.812ZM1832.4 630.812L1840.08 637.217L1853.76 620.812H1832.4V630.812ZM1712.75 774.301L1705.07 767.897L1699.84 774.172L1704.95 780.55L1712.75 774.301ZM1842.62 926.523H1800.89V946.523H1842.62V926.523ZM1808.63 930.194L1690.27 785.428L1674.78 798.088L1793.15 942.853L1808.63 930.194ZM1672.52 791.758V936.523H1692.52V791.758H1672.52ZM1682.52 926.523H1650.59V946.523H1682.52V926.523ZM1660.59 936.523V630.812H1640.59V936.523H1660.59ZM1650.59 640.812H1682.52V620.812H1650.59V640.812ZM1672.52 630.812V762.805H1692.52V630.812H1672.52ZM1690.19 769.231L1800.89 637.239L1785.56 624.386L1674.86 756.379L1690.19 769.231ZM1793.23 640.812H1832.4V620.812H1793.23V640.812ZM1824.72 624.408L1705.07 767.897L1720.43 780.705L1840.08 637.217L1824.72 624.408ZM1704.95 780.55L1834.81 942.773L1850.42 930.274L1720.56 768.051L1704.95 780.55ZM2034.64 936.523V946.523H2044.64V936.523H2034.64ZM1877.11 936.523H1867.11V946.523H1877.11V936.523ZM1877.11 630.812V620.812H1867.11V630.812H1877.11ZM2031.24 630.812H2041.24V620.812H2031.24V630.812ZM2031.24 661.043V671.043H2041.24V661.043H2031.24ZM1909.89 661.043V651.043H1899.89V661.043H1909.89ZM1909.89 761.527H1899.89V771.527H1909.89V761.527ZM2026.13 761.527H2036.13V751.527H2026.13V761.527ZM2026.13 791.758V801.758H2036.13V791.758H2026.13ZM1909.89 791.758V781.758H1899.89V791.758H1909.89ZM1909.89 906.293H1899.89V916.293H1909.89V906.293ZM2034.64 906.293H2044.64V896.293H2034.64V906.293ZM2034.64 926.523H1877.11V946.523H2034.64V926.523ZM1887.11 936.523V630.812H1867.11V936.523H1887.11ZM1877.11 640.812H2031.24V620.812H1877.11V640.812ZM2021.24 630.812V661.043H2041.24V630.812H2021.24ZM2031.24 651.043H1909.89V671.043H2031.24V651.043ZM1899.89 661.043V761.527H1919.89V661.043H1899.89ZM1909.89 771.527H2026.13V751.527H1909.89V771.527ZM2016.13 761.527V791.758H2036.13V761.527H2016.13ZM2026.13 781.758H1909.89V801.758H2026.13V781.758ZM1899.89 791.758V906.293H1919.89V791.758H1899.89ZM1909.89 916.293H2034.64V896.293H1909.89V916.293ZM2024.64 906.293V936.523H2044.64V906.293H2024.64ZM2275.64 661.043V671.043H2285.64V661.043H2275.64ZM2188.35 661.043V651.043H2178.35V661.043H2188.35ZM2188.35 936.523V946.523H2198.35V936.523H2188.35ZM2155.14 936.523H2145.14V946.523H2155.14V936.523ZM2155.14 661.043H2165.14V651.043H2155.14V661.043ZM2068.28 661.043H2058.28V671.043H2068.28V661.043ZM2068.28 630.812V620.812H2058.28V630.812H2068.28ZM2275.64 630.812H2285.64V620.812H2275.64V630.812ZM2275.64 651.043H2188.35V671.043H2275.64V651.043ZM2178.35 661.043V936.523H2198.35V661.043H2178.35ZM2188.35 926.523H2155.14V946.523H2188.35V926.523ZM2165.14 936.523V661.043H2145.14V936.523H2165.14ZM2155.14 651.043H2068.28V671.043H2155.14V651.043ZM2078.28 661.043V630.812H2058.28V661.043H2078.28ZM2068.28 640.812H2275.64V620.812H2068.28V640.812ZM2265.64 630.812V661.043H2285.64V630.812H2265.64ZM2352.7 936.523V946.523H2362.7V936.523H2352.7ZM2319.49 936.523H2309.49V946.523H2319.49V936.523ZM2319.49 630.812V620.812H2309.49V630.812H2319.49ZM2352.7 630.812H2362.7V620.812H2352.7V630.812ZM2352.7 926.523H2319.49V946.523H2352.7V926.523ZM2329.49 936.523V630.812H2309.49V936.523H2329.49ZM2319.49 640.812H2352.7V620.812H2319.49V640.812ZM2342.7 630.812V936.523H2362.7V630.812H2342.7ZM2606.47 936.523V946.523H2616.47V936.523H2606.47ZM2567.72 936.523L2558.68 940.798L2561.39 946.523H2567.72V936.523ZM2445.52 678.074L2454.56 673.8L2435.52 678.074H2445.52ZM2445.52 936.523V946.523H2455.52V936.523H2445.52ZM2414.44 936.523H2404.44V946.523H2414.44V936.523ZM2414.44 630.812V620.812H2404.44V630.812H2414.44ZM2452.76 630.812L2461.8 626.532L2459.09 620.812H2452.76V630.812ZM2575.39 889.688L2566.35 893.968L2585.39 889.688H2575.39ZM2575.39 630.812V620.812H2565.39V630.812H2575.39ZM2606.47 630.812H2616.47V620.812H2606.47V630.812ZM2606.47 926.523H2567.72V946.523H2606.47V926.523ZM2576.76 932.249L2454.56 673.8L2436.48 682.349L2558.68 940.798L2576.76 932.249ZM2435.52 678.074V936.523H2455.52V678.074H2435.52ZM2445.52 926.523H2414.44V946.523H2445.52V926.523ZM2424.44 936.523V630.812H2404.44V936.523H2424.44ZM2414.44 640.812H2452.76V620.812H2414.44V640.812ZM2443.72 635.093L2566.35 893.968L2584.42 885.407L2461.8 626.532L2443.72 635.093ZM2585.39 889.688V630.812H2565.39V889.688H2585.39ZM2575.39 640.812H2606.47V620.812H2575.39V640.812ZM2596.47 630.812V936.523H2616.47V630.812H2596.47ZM2870.88 714.691V724.691H2880.88V714.691H2870.88ZM2835.54 714.691H2825.54V724.691H2835.54V714.691ZM2830 687.867L2820.87 691.929L2820.96 692.136L2821.06 692.339L2830 687.867ZM2816.8 669.133L2823.47 661.68L2823.27 661.496L2823.05 661.324L2816.8 669.133ZM2797.64 658.488L2794.13 667.852L2794.2 667.875L2794.26 667.897L2797.64 658.488ZM2776.78 654.23L2777.18 644.238L2776.98 644.23H2776.78V654.23ZM2713.77 686.164L2705.84 680.067L2705.83 680.082L2705.82 680.097L2713.77 686.164ZM2694.18 727.891L2684.56 725.165L2684.54 725.219L2684.53 725.273L2694.18 727.891ZM2691.2 817.305L2681.34 818.949L2681.34 818.964L2681.34 818.979L2691.2 817.305ZM2706.1 862.012L2715.12 857.691L2715.08 857.615L2715.05 857.54L2706.1 862.012ZM2735.48 897.352L2729.43 905.31L2729.52 905.383L2729.62 905.454L2735.48 897.352ZM2835.11 902.035L2840.93 910.172L2845.11 907.181V902.035H2835.11ZM2835.11 804.105H2845.11V794.105H2835.11V804.105ZM2768.27 804.105H2758.27V814.105H2768.27V804.105ZM2768.27 773.449V763.449H2758.27V773.449H2768.27ZM2868.32 773.449H2878.32V763.449H2868.32V773.449ZM2868.32 919.492L2873.02 928.321L2878.32 925.5V919.492H2868.32ZM2827.02 935.672L2824.51 925.994L2824.48 926L2824.46 926.006L2827.02 935.672ZM2721.43 926.73L2716.17 935.236L2716.21 935.258L2716.24 935.278L2721.43 926.73ZM2682.68 889.262L2691 883.715L2690.99 883.697L2690.98 883.68L2682.68 889.262ZM2660.12 837.316L2650.38 839.607L2650.39 839.623L2650.39 839.639L2660.12 837.316ZM2660.54 720.652L2670.21 723.22L2670.21 723.201L2670.22 723.183L2660.54 720.652ZM2683.54 672.113L2691.52 678.139L2691.57 678.073L2691.62 678.005L2683.54 672.113ZM2842.35 649.547L2849.17 642.236L2849.17 642.228L2842.35 649.547ZM2862.79 677.648L2853.75 681.929L2853.82 682.074L2853.89 682.216L2862.79 677.648ZM2870.88 704.691H2835.54V724.691H2870.88V704.691ZM2845.54 714.691C2845.54 703.048 2843.5 692.49 2838.95 683.395L2821.06 692.339C2823.89 698.005 2825.54 705.33 2825.54 714.691H2845.54ZM2839.14 683.806C2835.25 675.053 2830.07 667.587 2823.47 661.68L2810.14 676.585C2814.32 680.329 2817.94 685.353 2820.87 691.929L2839.14 683.806ZM2823.05 661.324C2816.48 656.07 2809.12 651.993 2801.03 649.079L2794.26 667.897C2800.36 670.093 2805.77 673.112 2810.56 676.941L2823.05 661.324ZM2801.16 649.125C2793.37 646.206 2785.37 644.566 2777.18 644.238L2776.38 664.222C2782.39 664.463 2788.29 665.662 2794.13 667.852L2801.16 649.125ZM2776.78 644.23C2763.38 644.23 2750.56 647.115 2738.44 652.857L2747 670.932C2756.45 666.456 2766.34 664.23 2776.78 664.23V644.23ZM2738.44 652.857C2726 658.751 2715.16 667.955 2705.84 680.067L2721.69 692.261C2729.41 682.232 2737.87 675.257 2747 670.932L2738.44 652.857ZM2705.82 680.097C2696.63 692.136 2689.63 707.274 2684.56 725.165L2703.8 730.617C2708.38 714.444 2714.44 701.765 2721.72 692.231L2705.82 680.097ZM2684.53 725.273C2679.76 742.843 2677.37 760.47 2677.37 778.133H2697.37C2697.37 762.301 2699.51 746.433 2703.83 730.508L2684.53 725.273ZM2677.37 778.133C2677.37 789.652 2678.73 803.292 2681.34 818.949L2701.06 815.661C2698.56 800.661 2697.37 788.187 2697.37 778.133H2677.37ZM2681.34 818.979C2684.07 835.072 2689.37 850.913 2697.16 866.484L2715.05 857.54C2708.07 843.59 2703.43 829.626 2701.06 815.631L2681.34 818.979ZM2697.08 866.333C2704.36 881.509 2715.22 894.499 2729.43 905.31L2741.54 889.393C2729.63 880.334 2720.91 869.765 2715.12 857.691L2697.08 866.333ZM2729.62 905.454C2745.04 916.609 2764.12 921.828 2786.15 921.828V901.828C2767.3 901.828 2752.6 897.396 2741.34 889.249L2729.62 905.454ZM2786.15 921.828C2797.73 921.828 2808.93 920.455 2819.72 917.681L2814.74 898.311C2805.66 900.646 2796.14 901.828 2786.15 901.828V921.828ZM2819.72 917.681C2824.79 916.377 2829.02 915.175 2832.31 914.077C2835.21 913.112 2838.56 911.865 2840.93 910.172L2829.3 893.898C2829.67 893.633 2829.69 893.691 2828.94 894.015C2828.29 894.295 2827.32 894.658 2825.99 895.103C2823.32 895.991 2819.6 897.061 2814.74 898.311L2819.72 917.681ZM2845.11 902.035V804.105H2825.11V902.035H2845.11ZM2835.11 794.105H2768.27V814.105H2835.11V794.105ZM2778.27 804.105V773.449H2758.27V804.105H2778.27ZM2768.27 783.449H2868.32V763.449H2768.27V783.449ZM2858.32 773.449V919.492H2878.32V773.449H2858.32ZM2863.63 910.663C2850.96 917.404 2837.92 922.506 2824.51 925.994L2829.54 945.35C2844.51 941.457 2859.01 935.774 2873.02 928.321L2863.63 910.663ZM2824.46 926.006C2811.58 929.422 2796.3 931.207 2778.48 931.207V951.207C2797.57 951.207 2814.65 949.302 2829.59 945.337L2824.46 926.006ZM2778.48 931.207C2757.82 931.207 2740.68 926.717 2726.62 918.183L2716.24 935.278C2733.98 946.047 2754.87 951.207 2778.48 951.207V931.207ZM2726.69 918.225C2712.3 909.331 2700.43 897.853 2691 883.715L2674.36 894.809C2685.38 911.327 2699.33 924.827 2716.17 935.236L2726.69 918.225ZM2690.98 883.68C2681.17 869.099 2674.12 852.895 2669.84 834.994L2650.39 839.639C2655.2 859.774 2663.19 878.201 2674.39 894.843L2690.98 883.68ZM2669.85 835.026C2665.49 816.487 2663.3 797.528 2663.3 778.133H2643.3C2643.3 799.045 2645.66 819.542 2650.38 839.607L2669.85 835.026ZM2663.3 778.133C2663.3 758.784 2665.62 740.491 2670.21 723.22L2650.88 718.085C2645.81 737.147 2643.3 757.175 2643.3 778.133H2663.3ZM2670.22 723.183C2674.74 705.877 2681.87 690.91 2691.52 678.139L2675.55 666.087C2664.19 681.134 2655.99 698.527 2650.87 718.122L2670.22 723.183ZM2691.62 678.005C2700.66 665.608 2712.32 655.33 2726.77 647.188L2716.95 629.765C2700.17 639.222 2686.29 651.369 2675.46 666.222L2691.62 678.005ZM2726.77 647.188C2740.64 639.368 2757.2 635.277 2776.78 635.277V615.277C2754.35 615.277 2734.3 619.986 2716.95 629.765L2726.77 647.188ZM2776.78 635.277C2788.42 635.277 2799.29 637.213 2809.46 641.027L2816.48 622.301C2803.95 617.6 2790.69 615.277 2776.78 615.277V635.277ZM2809.46 641.027C2819.69 644.862 2828.34 650.16 2835.54 656.866L2849.17 642.228C2839.9 633.605 2828.97 626.981 2816.48 622.301L2809.46 641.027ZM2835.53 656.857C2843.1 663.923 2849.17 672.255 2853.75 681.929L2871.83 673.368C2866.19 661.469 2858.64 651.067 2849.17 642.236L2835.53 656.857ZM2853.89 682.216C2858.43 691.047 2860.88 701.769 2860.88 714.691H2880.88C2880.88 699.228 2877.94 685.255 2871.68 673.08L2853.89 682.216ZM3315.82 936.098V946.098H3336L3323.78 930.042L3315.82 936.098ZM3275.8 936.098L3267.8 942.098L3270.8 946.098H3275.8V936.098ZM3242.59 891.816L3250.59 885.816L3243.67 876.592L3235.51 884.745L3242.59 891.816ZM3201.71 924.176L3206.77 932.803L3206.88 932.735L3207 932.665L3201.71 924.176ZM3175.31 936.098L3178.21 945.668L3178.34 945.628L3178.47 945.585L3175.31 936.098ZM3145.93 940.781L3145.66 930.785L3145.53 930.789L3145.41 930.795L3145.93 940.781ZM3098.67 929.711L3093.75 938.414L3093.84 938.468L3093.94 938.521L3098.67 929.711ZM3064.61 892.242L3073.68 888.022L3073.67 888.003L3073.66 887.984L3064.61 892.242ZM3058.65 844.555L3048.78 842.937L3058.65 844.555ZM3080.36 800.273L3087.6 807.174L3087.63 807.141L3087.66 807.108L3080.36 800.273ZM3136.14 753.863L3142.39 761.672L3150.2 755.425L3143.95 747.616L3136.14 753.863ZM3102.5 689.57L3112.46 688.665L3112.46 688.636L3112.46 688.607L3102.5 689.57ZM3105.91 664.875L3115.17 668.648L3115.19 668.59L3115.22 668.532L3105.91 664.875ZM3118.68 644.438L3111.61 637.366L3111.52 637.457L3111.43 637.55L3118.68 644.438ZM3139.97 630.387L3143.8 639.627L3143.87 639.595L3143.95 639.562L3139.97 630.387ZM3213.63 638.477L3219.58 630.435L3219.55 630.412L3219.51 630.389L3213.63 638.477ZM3229.39 657.211L3220.51 661.814L3220.61 662.014L3220.72 662.208L3229.39 657.211ZM3236.2 683.609L3226.2 683.887L3226.2 683.895L3226.2 683.903L3236.2 683.609ZM3226.83 713.84L3218.34 708.561L3218.32 708.593L3218.3 708.625L3226.83 713.84ZM3202.99 741.516L3209.13 749.409L3209.31 749.271L3209.48 749.124L3202.99 741.516ZM3180 758.973L3174.26 750.78L3165.72 756.757L3172.05 765.041L3180 758.973ZM3245.99 845.406L3238.04 851.475L3245.64 861.426L3253.67 851.816L3245.99 845.406ZM3278.35 806.66L3285 799.186L3277.29 792.334L3270.68 800.25L3278.35 806.66ZM3301.34 827.098L3308.79 833.775L3315.49 826.297L3307.99 819.624L3301.34 827.098ZM3264.3 868.398L3256.86 861.722L3251.34 867.876L3256.34 874.454L3264.3 868.398ZM3145.51 658.488L3153.01 665.095L3153.08 665.022L3153.14 664.948L3145.51 658.488ZM3145.08 712.988L3136.44 718.027L3136.53 718.17L3136.62 718.31L3145.08 712.988ZM3161.26 737.258L3153.17 743.14L3158.29 750.175L3165.97 746.081L3161.26 737.258ZM3179.14 723.207L3172.7 715.558L3172.52 715.71L3172.35 715.869L3179.14 723.207ZM3195.32 705.324L3187.29 699.372L3187.27 699.398L3187.25 699.424L3195.32 705.324ZM3225.13 869.25L3232.69 875.799L3238.04 869.626L3233.05 863.151L3225.13 869.25ZM3154.02 776.855L3161.95 770.757L3156.34 763.469L3148.61 768.448L3154.02 776.855ZM3107.19 816.879L3099.79 810.146L3099.68 810.268L3099.57 810.394L3107.19 816.879ZM3093.14 846.258L3102.85 848.627L3102.86 848.601L3102.86 848.574L3093.14 846.258ZM3096.12 881.598L3105.4 877.884L3105.39 877.865L3105.39 877.846L3096.12 881.598ZM3115.28 904.59L3109.4 912.677L3109.53 912.777L3109.67 912.873L3115.28 904.59ZM3144.66 914.809L3144.37 924.805L3144.39 924.805L3144.42 924.806L3144.66 914.809ZM3185.53 902.035L3190.51 910.708L3190.57 910.673L3190.63 910.638L3185.53 902.035ZM3315.82 926.098H3275.8V946.098H3315.82V926.098ZM3283.8 930.098L3250.59 885.816L3234.59 897.816L3267.8 942.098L3283.8 930.098ZM3235.51 884.745C3223.86 896.398 3210.84 906.712 3196.43 915.687L3207 932.665C3222.67 922.905 3236.9 911.647 3249.66 898.887L3235.51 884.745ZM3196.65 915.549C3189.04 920.011 3180.88 923.701 3172.15 926.611L3178.47 945.585C3188.48 942.25 3197.92 937.992 3206.77 932.803L3196.65 915.549ZM3172.41 926.527C3163.93 929.097 3155.03 930.525 3145.66 930.785L3146.21 950.777C3157.28 950.47 3167.96 948.776 3178.21 945.668L3172.41 926.527ZM3145.41 930.795C3131.19 931.543 3117.24 928.334 3103.4 920.901L3093.94 938.521C3110.76 947.552 3128.32 951.722 3146.46 950.767L3145.41 930.795ZM3103.6 921.008C3090.46 913.573 3080.51 902.698 3073.68 888.022L3055.54 896.462C3064.04 914.714 3076.79 928.818 3093.75 938.414L3103.6 921.008ZM3073.66 887.984C3067.79 875.515 3065.97 861.693 3068.52 846.172L3048.78 842.937C3045.65 862.047 3047.8 880.016 3055.56 896.5L3073.66 887.984ZM3068.52 846.172C3071.04 830.758 3077.41 817.863 3087.6 807.174L3073.13 793.373C3060.04 807.096 3051.93 823.721 3048.78 842.937L3068.52 846.172ZM3087.66 807.108C3099.87 794.065 3110.69 784.386 3120.13 777.831L3108.72 761.403C3097.72 769.042 3085.83 779.799 3073.06 793.439L3087.66 807.108ZM3120.13 777.831C3130.36 770.726 3137.84 765.308 3142.39 761.672L3129.89 746.055C3125.92 749.231 3118.93 754.316 3108.72 761.403L3120.13 777.831ZM3143.95 747.616C3132.77 733.637 3124.97 722.273 3120.28 713.419L3102.61 722.777C3108.14 733.225 3116.81 745.704 3128.33 760.11L3143.95 747.616ZM3120.28 713.419C3115.7 704.752 3113.18 696.517 3112.46 688.665L3092.54 690.476C3093.53 701.358 3096.98 712.141 3102.61 722.777L3120.28 713.419ZM3112.46 688.607C3111.75 681.306 3112.7 674.711 3115.17 668.648L3096.65 661.102C3092.87 670.367 3091.55 680.236 3092.55 690.534L3112.46 688.607ZM3115.22 668.532C3117.91 661.674 3121.51 655.986 3125.93 651.325L3111.43 637.55C3105.08 644.243 3100.15 652.18 3096.6 661.218L3115.22 668.532ZM3125.75 651.509C3130.73 646.529 3136.71 642.56 3143.8 639.627L3136.15 621.147C3126.77 625.026 3118.55 630.424 3111.61 637.366L3125.75 651.509ZM3143.95 639.562C3151.09 636.469 3159.08 634.852 3168.07 634.852V614.852C3156.63 614.852 3145.89 616.925 3136 621.211L3143.95 639.562ZM3168.07 634.852C3174.74 634.852 3181.8 635.839 3189.26 637.898L3194.58 618.618C3185.58 616.135 3176.73 614.852 3168.07 614.852V634.852ZM3189.26 637.898C3196.45 639.883 3202.58 642.8 3207.75 646.564L3219.51 630.389C3212.2 625.07 3203.85 621.175 3194.58 618.618L3189.26 637.898ZM3207.69 646.518C3212.91 650.379 3217.19 655.417 3220.51 661.814L3238.26 652.608C3233.63 643.677 3227.41 636.225 3219.58 630.435L3207.69 646.518ZM3220.72 662.208C3224 667.889 3225.96 674.998 3226.2 683.887L3246.2 683.332C3245.87 671.784 3243.29 661.293 3238.05 652.214L3220.72 662.208ZM3226.2 683.903C3226.42 691.105 3224.12 699.262 3218.34 708.561L3235.32 719.119C3242.6 707.413 3246.55 695.416 3246.19 683.315L3226.2 683.903ZM3218.3 708.625C3212.64 717.891 3205.39 726.32 3196.5 733.907L3209.48 749.124C3219.88 740.248 3228.54 730.226 3235.36 719.054L3218.3 708.625ZM3196.85 733.622C3191.75 737.589 3187.36 740.984 3183.69 743.808L3195.89 759.661C3199.59 756.808 3204.01 753.39 3209.13 749.409L3196.85 733.622ZM3183.69 743.808C3180.08 746.584 3176.94 748.903 3174.26 750.78L3185.73 767.165C3188.73 765.069 3192.11 762.562 3195.89 759.661L3183.69 743.808ZM3172.05 765.041L3238.04 851.475L3253.94 839.338L3187.94 752.904L3172.05 765.041ZM3253.67 851.816L3286.03 813.07L3270.68 800.25L3238.32 838.996L3253.67 851.816ZM3271.71 814.134L3294.7 834.572L3307.99 819.624L3285 799.186L3271.71 814.134ZM3293.9 820.421L3256.86 861.722L3271.75 875.075L3308.79 833.775L3293.9 820.421ZM3256.34 874.454L3307.86 942.154L3323.78 930.042L3272.26 862.343L3256.34 874.454ZM3213.84 681.055C3213.84 669.198 3208.93 658.876 3200.12 650.423L3186.27 664.851C3191.66 670.022 3193.84 675.312 3193.84 681.055H3213.84ZM3200.12 650.423C3191.27 641.922 3180.59 637.418 3168.5 637.418V657.418C3175.15 657.418 3180.93 659.727 3186.27 664.851L3200.12 650.423ZM3168.5 637.418C3156.27 637.418 3145.88 642.568 3137.87 652.029L3153.14 664.948C3157.63 659.648 3162.57 657.418 3168.5 657.418V637.418ZM3138 651.882C3130.11 660.846 3126.14 671.582 3126.14 683.609H3146.14C3146.14 676.334 3148.41 670.324 3153.01 665.095L3138 651.882ZM3126.14 683.609C3126.14 695.156 3129.82 706.675 3136.44 718.027L3153.72 707.95C3148.42 698.864 3146.14 690.798 3146.14 683.609H3126.14ZM3136.62 718.31C3142.93 728.349 3148.45 736.645 3153.17 743.14L3169.35 731.376C3164.99 725.381 3159.73 717.498 3153.55 707.667L3136.62 718.31ZM3165.97 746.081C3171.44 743.162 3178.2 737.71 3185.94 730.545L3172.35 715.869C3164.76 722.897 3159.6 726.812 3156.56 728.434L3165.97 746.081ZM3185.59 730.856C3191.74 725.673 3197.66 719.071 3203.4 711.224L3187.25 699.424C3182.2 706.338 3177.33 711.658 3172.7 715.558L3185.59 730.856ZM3203.36 711.276C3210.15 702.107 3213.84 691.969 3213.84 681.055H3193.84C3193.84 687.172 3191.85 693.213 3187.29 699.372L3203.36 711.276ZM3233.05 863.151L3161.95 770.757L3146.1 782.954L3217.2 875.349L3233.05 863.151ZM3148.61 768.448C3131.08 779.74 3114.81 793.659 3099.79 810.146L3114.58 823.612C3128.52 808.307 3143.48 795.544 3159.44 785.263L3148.61 768.448ZM3099.57 810.394C3091.82 819.495 3086.53 830.812 3083.41 843.942L3102.86 848.574C3105.42 837.86 3109.5 829.591 3114.8 823.364L3099.57 810.394ZM3083.42 843.888C3080.05 857.716 3081.3 871.636 3086.85 885.35L3105.39 877.846C3101.29 867.716 3100.55 858.076 3102.85 848.627L3083.42 843.888ZM3086.83 885.312C3091.1 895.983 3098.9 905.046 3109.4 912.677L3121.16 896.502C3112.92 890.509 3107.95 884.244 3105.4 877.884L3086.83 885.312ZM3109.67 912.873C3120.62 920.279 3132.23 924.458 3144.37 924.805L3144.94 904.813C3137.21 904.592 3129.23 901.958 3120.88 896.307L3109.67 912.873ZM3144.42 924.806C3158.84 925.149 3174.31 920.007 3190.51 910.708L3180.55 893.363C3166.1 901.662 3154.31 905.036 3144.89 904.811L3144.42 924.806ZM3190.63 910.638C3206.83 901.037 3220.87 889.428 3232.69 875.799L3217.57 862.701C3207.24 874.619 3194.89 884.867 3180.43 893.432L3190.63 910.638ZM3521.9 661.043V651.043H3511.9V661.043H3521.9ZM3521.9 906.293H3511.9V916.293H3521.9V906.293ZM3574.27 905.441L3573.6 895.464L3573.59 895.464L3573.58 895.465L3574.27 905.441ZM3594.71 902.461L3597.38 912.096L3597.39 912.093L3597.4 912.091L3594.71 902.461ZM3616.42 891.391L3622.32 899.465L3622.42 899.392L3622.52 899.317L3616.42 891.391ZM3637.29 867.973L3645.64 873.464L3645.66 873.435L3645.68 873.405L3637.29 867.973ZM3652.61 833.059L3643.07 830.076L3643.04 830.167L3643.01 830.259L3652.61 833.059ZM3652.61 734.277L3643.01 737.077L3643.05 737.198L3643.09 737.318L3652.61 734.277ZM3637.29 699.363L3645.68 693.931L3645.66 693.901L3645.64 693.872L3637.29 699.363ZM3616.42 676.371L3610.32 684.297L3610.42 684.372L3610.52 684.445L3616.42 676.371ZM3594.71 664.875L3597.4 655.245L3597.39 655.243L3597.38 655.24L3594.71 664.875ZM3574.27 661.895L3573.58 671.871L3573.59 671.872L3573.6 671.872L3574.27 661.895ZM3489.54 630.812V620.812H3479.54V630.812H3489.54ZM3579.8 632.516L3578.64 642.447L3578.78 642.464L3578.93 642.477L3579.8 632.516ZM3605.35 636.348L3607.94 626.689L3607.77 626.643L3607.6 626.604L3605.35 636.348ZM3665.39 682.758L3657.07 688.305L3657.13 688.399L3657.19 688.492L3665.39 682.758ZM3684.55 725.336L3674.93 728.062L3674.95 728.136L3674.97 728.209L3684.55 725.336ZM3684.55 842L3674.96 839.17L3674.94 839.222L3674.93 839.274L3684.55 842ZM3665.39 884.578L3657.19 878.844L3657.13 878.937L3657.07 879.031L3665.39 884.578ZM3605.35 930.562L3602.98 920.847L3602.87 920.875L3602.75 920.906L3605.35 930.562ZM3579.8 935.246L3580.68 945.207L3580.83 945.195L3580.97 945.178L3579.8 935.246ZM3489.54 936.523H3479.54V946.523H3489.54V936.523ZM3511.9 661.043V906.293H3531.9V661.043H3511.9ZM3521.9 916.293H3552.98V896.293H3521.9V916.293ZM3552.98 916.293C3559.24 916.293 3566.58 915.996 3574.96 915.418L3573.58 895.465C3565.5 896.023 3558.64 896.293 3552.98 896.293V916.293ZM3574.93 915.419C3583.77 914.83 3591.34 913.774 3597.38 912.096L3592.03 892.826C3587.85 893.987 3581.8 894.917 3573.6 895.464L3574.93 915.419ZM3597.4 912.091C3605.89 909.714 3614.2 905.4 3622.32 899.465L3610.52 883.317C3603.88 888.167 3597.71 891.234 3592.01 892.831L3597.4 912.091ZM3622.52 899.317C3630.99 892.801 3638.66 884.086 3645.64 873.464L3628.93 862.481C3622.85 871.729 3616.62 878.626 3610.32 883.464L3622.52 899.317ZM3645.68 873.405C3652.56 862.775 3658.03 850.206 3662.21 835.859L3643.01 830.259C3639.25 843.161 3634.5 853.868 3628.89 862.54L3645.68 873.405ZM3662.16 836.041C3666.8 821.179 3669 803.65 3669 783.668H3649C3649 802.29 3646.94 817.688 3643.07 830.076L3662.16 836.041ZM3669 783.668C3669 763.428 3666.81 745.866 3662.14 731.237L3643.09 737.318C3646.93 749.371 3649 764.736 3649 783.668H3669ZM3662.21 731.477C3658.03 717.13 3652.56 704.561 3645.68 693.931L3628.89 704.796C3634.5 713.468 3639.25 724.174 3643.01 737.077L3662.21 731.477ZM3645.64 693.872C3638.64 683.221 3630.91 674.574 3622.32 668.297L3610.52 684.445C3616.69 688.955 3622.87 695.636 3628.93 704.855L3645.64 693.872ZM3622.52 668.445C3614.38 662.185 3606.01 657.655 3597.4 655.245L3592.01 674.505C3597.6 676.069 3603.7 679.203 3610.32 684.297L3622.52 668.445ZM3597.38 655.24C3591.34 653.562 3583.77 652.506 3574.93 651.917L3573.6 671.872C3581.8 672.419 3587.85 673.349 3592.03 674.51L3597.38 655.24ZM3574.96 651.918C3566.58 651.34 3559.24 651.043 3552.98 651.043V671.043C3558.64 671.043 3565.5 671.313 3573.58 671.871L3574.96 651.918ZM3552.98 651.043H3521.9V671.043H3552.98V651.043ZM3489.54 640.812H3552.98V620.812H3489.54V640.812ZM3552.98 640.812C3560.76 640.812 3569.31 641.349 3578.64 642.447L3580.97 622.584C3571 621.411 3561.66 620.812 3552.98 620.812V640.812ZM3578.93 642.477C3588.24 643.298 3596.28 644.517 3603.1 646.092L3607.6 626.604C3599.66 624.773 3590.68 623.436 3580.68 622.554L3578.93 642.477ZM3602.76 646.006C3613.02 648.758 3622.75 653.656 3632 660.847L3644.28 645.06C3633.08 636.354 3620.96 630.182 3607.94 626.689L3602.76 646.006ZM3632 660.847C3641.28 668.068 3649.65 677.182 3657.07 688.305L3673.71 677.211C3665.23 664.489 3655.43 653.734 3644.28 645.06L3632 660.847ZM3657.19 688.492C3664.35 698.717 3670.32 711.823 3674.93 728.062L3694.17 722.61C3689.12 704.787 3682.32 689.507 3673.58 677.023L3657.19 688.492ZM3674.97 728.209C3679.74 744.124 3682.21 762.571 3682.21 783.668H3702.21C3702.21 761.052 3699.57 740.611 3694.13 722.462L3674.97 728.209ZM3682.21 783.668C3682.21 804.463 3679.75 822.932 3674.96 839.17L3694.14 844.83C3699.57 826.438 3702.21 806.018 3702.21 783.668H3682.21ZM3674.93 839.274C3670.32 855.513 3664.35 868.619 3657.19 878.844L3673.58 890.313C3682.32 877.829 3689.12 862.549 3694.17 844.726L3674.93 839.274ZM3657.07 879.031C3649.65 890.153 3641.28 899.268 3632 906.489L3644.28 922.276C3655.43 913.602 3665.23 902.847 3673.71 890.125L3657.07 879.031ZM3632 906.489C3622.8 913.642 3613.14 918.369 3602.98 920.847L3607.72 940.278C3620.84 937.078 3633.03 931.02 3644.28 922.276L3632 906.489ZM3602.75 920.906C3595.95 922.738 3587.93 924.222 3578.64 925.315L3580.97 945.178C3590.98 944 3600 942.361 3607.95 940.219L3602.75 920.906ZM3578.93 925.285C3569.52 926.115 3560.87 926.523 3552.98 926.523V946.523C3561.55 946.523 3570.79 946.08 3580.68 945.207L3578.93 925.285ZM3552.98 926.523H3489.54V946.523H3552.98V926.523ZM3499.54 936.523V630.812H3479.54V936.523H3499.54ZM3899.14 936.523V946.523H3909.14V936.523H3899.14ZM3741.6 936.523H3731.6V946.523H3741.6V936.523ZM3741.6 630.812V620.812H3731.6V630.812H3741.6ZM3895.73 630.812H3905.73V620.812H3895.73V630.812ZM3895.73 661.043V671.043H3905.73V661.043H3895.73ZM3774.39 661.043V651.043H3764.39V661.043H3774.39ZM3774.39 761.527H3764.39V771.527H3774.39V761.527ZM3890.62 761.527H3900.62V751.527H3890.62V761.527ZM3890.62 791.758V801.758H3900.62V791.758H3890.62ZM3774.39 791.758V781.758H3764.39V791.758H3774.39ZM3774.39 906.293H3764.39V916.293H3774.39V906.293ZM3899.14 906.293H3909.14V896.293H3899.14V906.293ZM3899.14 926.523H3741.6V946.523H3899.14V926.523ZM3751.6 936.523V630.812H3731.6V936.523H3751.6ZM3741.6 640.812H3895.73V620.812H3741.6V640.812ZM3885.73 630.812V661.043H3905.73V630.812H3885.73ZM3895.73 651.043H3774.39V671.043H3895.73V651.043ZM3764.39 661.043V761.527H3784.39V661.043H3764.39ZM3774.39 771.527H3890.62V751.527H3774.39V771.527ZM3880.62 761.527V791.758H3900.62V761.527H3880.62ZM3890.62 781.758H3774.39V801.758H3890.62V781.758ZM3764.39 791.758V906.293H3784.39V791.758H3764.39ZM3774.39 916.293H3899.14V896.293H3774.39V916.293ZM3889.14 906.293V936.523H3909.14V906.293H3889.14ZM4109.9 853.922H4119.9V853.709L4119.89 853.497L4109.9 853.922ZM3940.02 928.434H3930.02V935.563L3936.76 937.887L3940.02 928.434ZM3940.02 892.668L3944.63 883.796L3930.02 876.197V892.668H3940.02ZM3967.27 903.312L3970.3 893.783L3970.25 893.769L3970.21 893.755L3967.27 903.312ZM4034.11 908.848L4031.86 899.104L4031.82 899.114L4031.78 899.124L4034.11 908.848ZM4054.12 900.332L4059.67 908.653L4054.12 900.332ZM4069.45 884.152L4061.13 878.605L4061.05 878.728L4060.97 878.852L4069.45 884.152ZM4056.25 818.156L4062.92 810.704L4062.87 810.654L4062.81 810.606L4056.25 818.156ZM4022.19 794.738L4017.49 803.562L4017.52 803.579L4017.55 803.597L4022.19 794.738ZM3994.52 779.836L3989.55 788.518L3989.65 788.572L3989.74 788.624L3994.52 779.836ZM3966.84 760.25L3973.39 752.693L3973.26 752.577L3973.12 752.466L3966.84 760.25ZM3945.55 735.98L3936.88 740.97L3936.92 741.028L3936.95 741.086L3945.55 735.98ZM3962.16 644.438L3968.2 652.404L3968.24 652.372L3968.29 652.338L3962.16 644.438ZM4045.18 626.98L4043.47 636.833L4043.5 636.839L4043.54 636.844L4045.18 626.98ZM4064.34 630.812L4062.03 640.541L4062.04 640.543L4064.34 630.812ZM4092.02 638.477H4102.02V631.269L4095.18 628.99L4092.02 638.477ZM4092.02 670.836L4087.12 679.552L4102.02 687.934V670.836H4092.02ZM3985.57 666.152L3991.95 673.853L3992.02 673.799L3992.08 673.745L3985.57 666.152ZM3974.93 718.098L3966.19 722.954L3966.35 723.248L3966.53 723.53L3974.93 718.098ZM4000.48 743.645L3994.83 751.898L3995.08 752.066L3995.33 752.219L4000.48 743.645ZM4017.51 754.289L4012.06 762.673L4012.46 762.935L4012.89 763.157L4017.51 754.289ZM4087.34 798.57L4094.09 791.199L4094.09 791.192L4094.08 791.185L4087.34 798.57ZM4103.09 821.137L4093.87 825.004L4093.94 825.186L4094.03 825.366L4103.09 821.137ZM4099.9 853.922C4099.9 881.575 4091.45 900.206 4076.13 911.992L4088.32 927.844C4109.9 911.245 4119.9 885.878 4119.9 853.922H4099.9ZM4076.13 911.992C4059.94 924.445 4037.48 931.207 4007.71 931.207V951.207C4040.4 951.207 4067.61 943.776 4088.32 927.844L4076.13 911.992ZM4007.71 931.207C3996.59 931.207 3985.13 929.883 3973.31 927.198L3968.88 946.701C3982.04 949.692 3994.99 951.207 4007.71 951.207V931.207ZM3973.31 927.198C3961.03 924.406 3951.05 921.66 3943.28 918.98L3936.76 937.887C3945.45 940.885 3956.19 943.815 3968.88 946.701L3973.31 927.198ZM3950.02 928.434V892.668H3930.02V928.434H3950.02ZM3935.4 901.54C3943.21 905.602 3952.91 909.358 3964.32 912.87L3970.21 893.755C3959.48 890.455 3951.01 887.114 3944.63 883.796L3935.4 901.54ZM3964.23 912.842C3970.81 914.935 3978.06 916.854 3985.96 918.61L3990.3 899.086C3982.87 897.435 3976.21 895.664 3970.3 893.783L3964.23 912.842ZM3985.96 918.61C3994.32 920.467 4002.71 921.402 4011.12 921.402V901.402C4004.2 901.402 3997.27 900.634 3990.3 899.086L3985.96 918.61ZM4011.12 921.402C4020.04 921.402 4028.5 920.48 4036.45 918.572L4031.78 899.124C4025.54 900.622 4018.67 901.402 4011.12 901.402V921.402ZM4036.36 918.592C4044.85 916.633 4052.65 913.334 4059.67 908.653L4048.58 892.012C4043.68 895.278 4038.14 897.656 4031.86 899.104L4036.36 918.592ZM4059.67 908.653C4066.95 903.801 4073.01 897.322 4077.93 889.452L4060.97 878.852C4057.38 884.608 4053.22 888.915 4048.58 892.012L4059.67 908.653ZM4077.77 889.699C4083.59 880.968 4086.27 870.722 4086.27 859.457H4066.27C4066.27 867.494 4064.4 873.712 4061.13 878.605L4077.77 889.699ZM4086.27 859.457C4086.27 848.449 4083.99 838.446 4078.85 829.988L4061.76 840.387C4064.56 844.986 4066.27 851.163 4066.27 859.457H4086.27ZM4078.85 829.988C4074.39 822.668 4069.09 816.22 4062.92 810.704L4049.59 825.609C4054.21 829.743 4058.27 834.65 4061.76 840.387L4078.85 829.988ZM4062.81 810.606C4051.47 800.761 4039.48 792.506 4026.83 785.88L4017.55 803.597C4028.74 809.46 4039.46 816.817 4049.7 825.707L4062.81 810.606ZM4026.9 785.915C4018.41 781.386 4009.2 776.431 3999.29 771.047L3989.74 788.624C3999.7 794.028 4008.94 799.007 4017.49 803.562L4026.9 785.915ZM3999.48 771.154C3990.1 765.794 3981.41 759.641 3973.39 752.693L3960.29 767.807C3969.31 775.62 3979.06 782.524 3989.55 788.518L3999.48 771.154ZM3973.12 752.466C3965.18 746.064 3958.89 738.865 3954.15 730.875L3936.95 741.086C3942.99 751.263 3950.9 760.243 3960.56 768.034L3973.12 752.466ZM3954.22 730.991C3949.79 723.294 3947.46 714.402 3947.46 704.047H3927.46C3927.46 717.535 3930.53 729.932 3936.88 740.97L3954.22 730.991ZM3947.46 704.047C3947.46 678.842 3954.98 662.433 3968.2 652.404L3956.11 636.471C3936.4 651.421 3927.46 674.752 3927.46 704.047H3947.46ZM3968.29 652.338C3982.61 641.225 4001.44 635.277 4025.6 635.277V615.277C3998.09 615.277 3974.63 622.103 3956.03 636.537L3968.29 652.338ZM4025.6 635.277C4031.54 635.277 4037.5 635.794 4043.47 636.833L4046.9 617.128C4039.81 615.896 4032.71 615.277 4025.6 615.277V635.277ZM4043.54 636.844C4050.15 637.947 4056.31 639.18 4062.03 640.541L4066.66 621.084C4060.45 619.606 4053.84 618.285 4046.83 617.117L4043.54 636.844ZM4062.04 640.543C4072.63 643.053 4081.56 645.53 4088.86 647.963L4095.18 628.99C4087.15 626.314 4077.63 623.682 4066.65 621.082L4062.04 640.543ZM4082.02 638.477V670.836H4102.02V638.477H4082.02ZM4096.92 662.12C4091.36 658.99 4081.03 655.167 4066.97 650.667L4060.87 669.716C4075.19 674.299 4083.6 677.573 4087.12 679.552L4096.92 662.12ZM4066.97 650.667C4051.88 645.84 4036.94 643.379 4022.19 643.379V663.379C4034.69 663.379 4047.57 665.46 4060.87 669.716L4066.97 650.667ZM4022.19 643.379C4005.6 643.379 3991.01 648.322 3979.07 658.56L3992.08 673.745C4000.01 666.951 4009.83 663.379 4022.19 663.379V643.379ZM3979.19 658.452C3966.57 668.909 3960.67 683.595 3960.67 701.066H3980.67C3980.67 688.449 3984.71 679.859 3991.95 673.853L3979.19 658.452ZM3960.67 701.066C3960.67 708.891 3962.47 716.258 3966.19 722.954L3983.67 713.241C3981.71 709.719 3980.67 705.732 3980.67 701.066H3960.67ZM3966.53 723.53C3970.06 728.974 3974.2 734.062 3978.93 738.794L3993.07 724.652C3989.29 720.868 3986.05 716.872 3983.33 712.665L3966.53 723.53ZM3978.93 738.794C3983.66 743.524 3988.97 747.888 3994.83 751.898L4006.12 735.391C4001.2 732.021 3996.86 728.437 3993.07 724.652L3978.93 738.794ZM3995.33 752.219C4000.9 755.563 4006.48 759.047 4012.06 762.673L4022.96 745.905C4017.18 742.151 4011.4 738.539 4005.62 735.07L3995.33 752.219ZM4012.89 763.157C4032.96 773.617 4047.64 781.947 4057.15 788.193L4068.13 771.479C4057.77 764.668 4042.36 755.966 4022.13 745.421L4012.89 763.157ZM4057.15 788.193C4066.78 794.523 4074.56 800.448 4080.59 805.955L4094.08 791.185C4087.05 784.77 4078.37 778.206 4068.13 771.479L4057.15 788.193ZM4080.58 805.942C4086.29 811.178 4090.72 817.492 4093.87 825.004L4112.31 817.269C4108.08 807.182 4102.01 798.452 4094.09 791.199L4080.58 805.942ZM4094.03 825.366C4097.26 832.297 4099.38 841.81 4099.91 854.347L4119.89 853.497C4119.29 839.351 4116.86 827.008 4112.15 816.908L4094.03 825.366ZM4189.52 936.523V946.523H4199.52V936.523H4189.52ZM4156.31 936.523H4146.31V946.523H4156.31V936.523ZM4156.31 630.812V620.812H4146.31V630.812H4156.31ZM4189.52 630.812H4199.52V620.812H4189.52V630.812ZM4189.52 926.523H4156.31V946.523H4189.52V926.523ZM4166.31 936.523V630.812H4146.31V936.523H4166.31ZM4156.31 640.812H4189.52V620.812H4156.31V640.812ZM4179.52 630.812V936.523H4199.52V630.812H4179.52ZM4455.21 714.691V724.691H4465.21V714.691H4455.21ZM4419.87 714.691H4409.87V724.691H4419.87V714.691ZM4414.34 687.867L4405.2 691.929L4405.29 692.136L4405.39 692.339L4414.34 687.867ZM4401.14 669.133L4407.8 661.68L4407.6 661.496L4407.38 661.324L4401.14 669.133ZM4381.98 658.488L4378.47 667.852L4378.53 667.875L4378.59 667.897L4381.98 658.488ZM4361.11 654.23L4361.51 644.238L4361.31 644.23H4361.11V654.23ZM4298.1 686.164L4290.17 680.067L4290.16 680.082L4290.15 680.097L4298.1 686.164ZM4278.51 727.891L4268.89 725.165L4268.88 725.219L4268.86 725.273L4278.51 727.891ZM4275.53 817.305L4265.67 818.949L4265.67 818.964L4265.67 818.979L4275.53 817.305ZM4290.43 862.012L4299.45 857.691L4299.42 857.615L4299.38 857.54L4290.43 862.012ZM4319.81 897.352L4313.76 905.31L4313.85 905.383L4313.95 905.454L4319.81 897.352ZM4419.45 902.035L4425.26 910.172L4429.45 907.181V902.035H4419.45ZM4419.45 804.105H4429.45V794.105H4419.45V804.105ZM4352.6 804.105H4342.6V814.105H4352.6V804.105ZM4352.6 773.449V763.449H4342.6V773.449H4352.6ZM4452.66 773.449H4462.66V763.449H4452.66V773.449ZM4452.66 919.492L4457.35 928.321L4462.66 925.5V919.492H4452.66ZM4411.36 935.672L4408.84 925.994L4408.82 926L4408.79 926.006L4411.36 935.672ZM4305.76 926.73L4300.5 935.236L4300.54 935.258L4300.57 935.278L4305.76 926.73ZM4267.02 889.262L4275.34 883.715L4275.32 883.697L4275.31 883.68L4267.02 889.262ZM4244.45 837.316L4234.72 839.607L4234.72 839.623L4234.72 839.639L4244.45 837.316ZM4244.88 720.652L4254.54 723.22L4254.54 723.201L4254.55 723.183L4244.88 720.652ZM4267.87 672.113L4275.85 678.139L4275.9 678.073L4275.95 678.005L4267.87 672.113ZM4426.68 649.547L4433.51 642.236L4433.5 642.228L4426.68 649.547ZM4447.12 677.648L4438.08 681.929L4438.15 682.074L4438.23 682.216L4447.12 677.648ZM4455.21 704.691H4419.87V724.691H4455.21V704.691ZM4429.87 714.691C4429.87 703.048 4427.83 692.49 4423.28 683.395L4405.39 692.339C4408.22 698.005 4409.87 705.33 4409.87 714.691H4429.87ZM4423.47 683.806C4419.58 675.053 4414.41 667.587 4407.8 661.68L4394.47 676.585C4398.65 680.329 4402.28 685.353 4405.2 691.929L4423.47 683.806ZM4407.38 661.324C4400.82 656.07 4393.46 651.993 4385.36 649.079L4378.59 667.897C4384.69 670.093 4390.1 673.112 4394.89 676.941L4407.38 661.324ZM4385.49 649.125C4377.7 646.206 4369.7 644.566 4361.51 644.238L4360.71 664.222C4366.72 664.463 4372.63 665.662 4378.47 667.852L4385.49 649.125ZM4361.11 644.23C4347.71 644.23 4334.89 647.115 4322.77 652.857L4331.33 670.932C4340.78 666.456 4350.67 664.23 4361.11 664.23V644.23ZM4322.77 652.857C4310.33 658.751 4299.49 667.955 4290.17 680.067L4306.02 692.261C4313.74 682.232 4322.2 675.257 4331.33 670.932L4322.77 652.857ZM4290.15 680.097C4280.96 692.136 4273.96 707.274 4268.89 725.165L4288.13 730.617C4292.72 714.444 4298.77 701.765 4306.05 692.231L4290.15 680.097ZM4268.86 725.273C4264.1 742.843 4261.7 760.47 4261.7 778.133H4281.7C4281.7 762.301 4283.84 746.433 4288.16 730.508L4268.86 725.273ZM4261.7 778.133C4261.7 789.652 4263.06 803.292 4265.67 818.949L4285.4 815.661C4282.9 800.661 4281.7 788.187 4281.7 778.133H4261.7ZM4265.67 818.979C4268.41 835.072 4273.7 850.913 4281.49 866.484L4299.38 857.54C4292.4 843.59 4287.77 829.626 4285.39 815.631L4265.67 818.979ZM4281.42 866.333C4288.69 881.509 4299.55 894.499 4313.76 905.31L4325.87 889.393C4313.96 880.334 4305.24 869.765 4299.45 857.691L4281.42 866.333ZM4313.95 905.454C4329.37 916.609 4348.45 921.828 4370.48 921.828V901.828C4351.63 901.828 4336.94 897.396 4325.67 889.249L4313.95 905.454ZM4370.48 921.828C4382.06 921.828 4393.26 920.455 4404.05 917.681L4399.07 898.311C4389.99 900.646 4380.47 901.828 4370.48 901.828V921.828ZM4404.05 917.681C4409.12 916.377 4413.35 915.175 4416.65 914.077C4419.54 913.112 4422.89 911.865 4425.26 910.172L4413.63 893.898C4414 893.633 4414.03 893.691 4413.27 894.015C4412.62 894.295 4411.66 894.658 4410.32 895.103C4407.66 895.991 4403.94 897.061 4399.07 898.311L4404.05 917.681ZM4429.45 902.035V804.105H4409.45V902.035H4429.45ZM4419.45 794.105H4352.6V814.105H4419.45V794.105ZM4362.6 804.105V773.449H4342.6V804.105H4362.6ZM4352.6 783.449H4452.66V763.449H4352.6V783.449ZM4442.66 773.449V919.492H4462.66V773.449H4442.66ZM4447.96 910.663C4435.29 917.404 4422.25 922.506 4408.84 925.994L4413.87 945.35C4428.84 941.457 4443.34 935.774 4457.35 928.321L4447.96 910.663ZM4408.79 926.006C4395.92 929.422 4380.63 931.207 4362.82 931.207V951.207C4381.9 951.207 4398.98 949.302 4413.92 945.337L4408.79 926.006ZM4362.82 931.207C4342.15 931.207 4325.01 926.717 4310.95 918.183L4300.57 935.278C4318.31 946.047 4339.2 951.207 4362.82 951.207V931.207ZM4311.02 918.225C4296.63 909.331 4284.76 897.853 4275.34 883.715L4258.7 894.809C4269.71 911.327 4283.67 924.827 4300.5 935.236L4311.02 918.225ZM4275.31 883.68C4265.5 869.099 4258.45 852.895 4254.18 834.994L4234.72 839.639C4239.53 859.774 4247.52 878.201 4258.72 894.843L4275.31 883.68ZM4254.18 835.026C4249.82 816.487 4247.64 797.528 4247.64 778.133H4227.64C4227.64 799.045 4229.99 819.542 4234.72 839.607L4254.18 835.026ZM4247.64 778.133C4247.64 758.784 4249.95 740.491 4254.54 723.22L4235.21 718.085C4230.15 737.147 4227.64 757.175 4227.64 778.133H4247.64ZM4254.55 723.183C4259.08 705.877 4266.2 690.91 4275.85 678.139L4259.89 666.087C4248.53 681.134 4240.33 698.527 4235.2 718.122L4254.55 723.183ZM4275.95 678.005C4284.99 665.608 4296.65 655.33 4311.1 647.188L4301.28 629.765C4284.5 639.222 4270.62 651.369 4259.79 666.222L4275.95 678.005ZM4311.1 647.188C4324.97 639.368 4341.53 635.277 4361.11 635.277V615.277C4338.69 615.277 4318.63 619.986 4301.28 629.765L4311.1 647.188ZM4361.11 635.277C4372.75 635.277 4383.62 637.213 4393.79 641.027L4400.82 622.301C4388.28 617.6 4375.02 615.277 4361.11 615.277V635.277ZM4393.79 641.027C4404.02 644.862 4412.67 650.16 4419.87 656.866L4433.5 642.228C4424.24 633.605 4413.3 626.981 4400.82 622.301L4393.79 641.027ZM4419.86 656.857C4427.43 663.923 4433.5 672.255 4438.08 681.929L4456.16 673.368C4450.52 661.469 4442.97 651.067 4433.51 642.236L4419.86 656.857ZM4438.23 682.216C4442.76 691.047 4445.21 701.769 4445.21 714.691H4465.21C4465.21 699.228 4462.27 685.255 4456.02 673.08L4438.23 682.216ZM4704.29 936.523V946.523H4714.29V936.523H4704.29ZM4665.55 936.523L4656.51 940.798L4659.21 946.523H4665.55V936.523ZM4543.35 678.074L4552.39 673.8L4533.35 678.074H4543.35ZM4543.35 936.523V946.523H4553.35V936.523H4543.35ZM4512.27 936.523H4502.27V946.523H4512.27V936.523ZM4512.27 630.812V620.812H4502.27V630.812H4512.27ZM4550.59 630.812L4559.62 626.532L4556.91 620.812H4550.59V630.812ZM4673.21 889.688L4664.17 893.968L4683.21 889.688H4673.21ZM4673.21 630.812V620.812H4663.21V630.812H4673.21ZM4704.29 630.812H4714.29V620.812H4704.29V630.812ZM4704.29 926.523H4665.55V946.523H4704.29V926.523ZM4674.59 932.249L4552.39 673.8L4534.31 682.349L4656.51 940.798L4674.59 932.249ZM4533.35 678.074V936.523H4553.35V678.074H4533.35ZM4543.35 926.523H4512.27V946.523H4543.35V926.523ZM4522.27 936.523V630.812H4502.27V936.523H4522.27ZM4512.27 640.812H4550.59V620.812H4512.27V640.812ZM4541.55 635.093L4664.17 893.968L4682.25 885.407L4559.62 626.532L4541.55 635.093ZM4683.21 889.688V630.812H4663.21V889.688H4683.21ZM4673.21 640.812H4704.29V620.812H4673.21V640.812ZM4694.29 630.812V936.523H4714.29V630.812H4694.29Z" fill="#E63946"/>
<path d="M15.0863 606.21C16.7362 564.822 51.6257 532.607 93.0142 534.257L139.982 536.129C181.843 537.798 214.22 573.435 211.877 615.264L195.426 909.015C193.265 947.603 162.133 978.231 123.515 979.762L81.1473 981.443C37.4128 983.177 1.49141 947.248 3.2348 903.514L15.0863 606.21Z" fill="#8D040E"/>
<path fill-rule="evenodd" clip-rule="evenodd" d="M179.111 100.52C98.0642 102.687 32.5776 167.32 29.3482 248.331L8.7771 764.371C12.081 686.409 225.701 620.704 499.299 594.017C578.935 586.249 642.945 522.597 646.132 442.647L653.727 252.135C657.275 163.123 584.785 89.6757 495.734 92.0563L179.111 100.52ZM258.992 246.958C233.259 247.718 212.502 268.261 211.477 293.985L203.638 490.615C205.01 458.163 292.316 449.861 402.987 444.011C428.345 442.671 448.591 422.318 449.602 396.946L453.721 293.627C454.852 265.25 431.7 241.858 403.314 242.696L258.992 246.958Z" fill="#E63946"/>
<circle cx="262.065" cy="396.628" r="23.472" fill="#8D040E" stroke="#F3A1A1" stroke-width="2"/>
<circle cx="329.255" cy="392.287" r="23.472" fill="#8D040E" stroke="#F3A1A1" stroke-width="2"/>
<circle cx="396.446" cy="388.391" r="23.472" fill="#8D040E" stroke="#F3A1A1" stroke-width="2"/>
</svg>
