<svg width="2323" height="733" viewBox="0 0 2323 733" fill="none" xmlns="http://www.w3.org/2000/svg">
<path d="M78 402.75L7.18494 511.466C7.06499 511.65 7.00905 511.869 7.02574 512.088L14.8009 614.137C14.8707 615.053 16.0343 615.398 16.5923 614.669L91.5 516.75M78 402.75L157.451 303.811C157.484 303.77 157.519 303.732 157.558 303.697L273.5 198.25M78 402.75L220 303.75M78 402.75L91.5 516.75M433 115V199.668C433 199.884 432.931 200.093 432.802 200.266L357 302M433 115L357 200M433 115L273.5 198.25M433 115V199.669C433 199.884 433.069 200.094 433.198 200.267L509 302.001M433 115L509 200.001M433 115L592.5 198.251M357 302V200M357 302L220 402.75M357 302L432.453 409.222C432.759 409.658 432.671 410.258 432.251 410.586L296.5 516.75M357 200L220 303.75M220 303.75L273.5 198.25M220 303.75V402.75M220 402.75L91.5 516.75M220 402.75L296.5 516.75M91.5 516.75L170.377 615.966C170.721 616.399 171.351 616.471 171.783 616.126L296.5 516.75M296.5 516.75L432.416 614.58C432.765 614.831 433.235 614.831 433.584 614.58L569.5 516.751M788 402.751L858.815 511.467C858.935 511.651 858.991 511.869 858.974 512.089L851.199 614.138C851.129 615.053 849.966 615.399 849.408 614.669L774.5 516.751M788 402.751L708.549 303.812C708.516 303.771 708.481 303.733 708.442 303.698L592.5 198.251M788 402.751L646 303.751M788 402.751L774.5 516.751M509 302.001V200.001M509 302.001L646 402.751M509 302.001L433.547 409.223C433.241 409.659 433.329 410.258 433.749 410.586L569.5 516.751M509 200.001L646 303.751M646 303.751L592.5 198.251M646 303.751V402.751M646 402.751L774.5 516.751M646 402.751L569.5 516.751M774.5 516.751L695.623 615.967C695.279 616.4 694.649 616.471 694.217 616.127L569.5 516.751" stroke="#606060" stroke-width="13"/>
<path d="M1042.48 476C1040.35 476 1038.53 475.36 1037.04 474.08C1035.76 472.587 1035.12 470.667 1035.12 468.32V454.56C1035.12 451.787 1035.55 449.547 1036.4 447.84C1037.47 446.133 1038.64 444.427 1039.92 442.72L1158.96 279.84H1045.36C1043.23 279.84 1041.41 279.2 1039.92 277.92C1038.64 276.427 1038 274.613 1038 272.48V259.68C1038 257.333 1038.64 255.52 1039.92 254.24C1041.41 252.747 1043.23 252 1045.36 252H1190.32C1192.67 252 1194.48 252.747 1195.76 254.24C1197.25 255.52 1198 257.333 1198 259.68V273.44C1198 275.787 1197.57 277.707 1196.72 279.2C1196.08 280.693 1195.12 282.507 1193.84 284.64L1075.76 448.16H1193.52C1195.87 448.16 1197.68 448.907 1198.96 450.4C1200.45 451.68 1201.2 453.493 1201.2 455.84V468.64C1201.2 470.773 1200.45 472.587 1198.96 474.08C1197.68 475.36 1195.87 476 1193.52 476H1042.48ZM1374.57 479.2C1346.62 479.2 1324.97 471.947 1309.61 457.44C1294.46 442.72 1286.46 420.64 1285.61 391.2C1285.39 384.8 1285.29 375.733 1285.29 364C1285.29 352.267 1285.39 343.307 1285.61 337.12C1286.46 308.32 1294.78 286.453 1310.57 271.52C1326.35 256.373 1347.69 248.8 1374.57 248.8C1401.23 248.8 1422.46 256.373 1438.25 271.52C1454.03 286.453 1462.35 308.32 1463.21 337.12C1463.63 349.493 1463.85 358.453 1463.85 364C1463.85 369.333 1463.63 378.4 1463.21 391.2C1462.35 420.64 1454.25 442.72 1438.89 457.44C1423.74 471.947 1402.3 479.2 1374.57 479.2ZM1374.57 452C1391.42 452 1404.86 446.88 1414.89 436.64C1424.91 426.4 1430.35 410.72 1431.21 389.6C1431.63 376.8 1431.85 368.267 1431.85 364C1431.85 359.307 1431.63 350.773 1431.21 338.4C1430.35 317.28 1424.81 301.6 1414.57 291.36C1404.54 281.12 1391.21 276 1374.57 276C1357.71 276 1344.17 281.12 1333.93 291.36C1323.9 301.6 1318.46 317.28 1317.61 338.4C1317.39 344.587 1317.29 353.12 1317.29 364C1317.29 374.667 1317.39 383.2 1317.61 389.6C1318.46 410.72 1323.9 426.4 1333.93 436.64C1344.17 446.88 1357.71 452 1374.57 452ZM1572.25 476C1570.12 476 1568.3 475.36 1566.81 474.08C1565.53 472.587 1564.89 470.773 1564.89 468.64V259.68C1564.89 257.333 1565.53 255.52 1566.81 254.24C1568.3 252.747 1570.12 252 1572.25 252H1588.25C1591.66 252 1594.44 253.707 1596.57 257.12L1664.09 386.4L1732.25 257.12C1732.68 255.84 1733.53 254.667 1734.81 253.6C1736.3 252.533 1738.12 252 1740.25 252H1755.93C1758.28 252 1760.09 252.747 1761.37 254.24C1762.86 255.52 1763.61 257.333 1763.61 259.68V468.64C1763.61 470.773 1762.86 472.587 1761.37 474.08C1759.88 475.36 1758.06 476 1755.93 476H1740.25C1738.12 476 1736.3 475.36 1734.81 474.08C1733.53 472.587 1732.89 470.773 1732.89 468.64V311.2L1679.45 415.52C1677.32 420 1673.9 422.24 1669.21 422.24H1659.29C1654.6 422.24 1651.18 420 1649.05 415.52L1595.29 311.2V468.64C1595.29 470.773 1594.54 472.587 1593.05 474.08C1591.77 475.36 1590.06 476 1587.93 476H1572.25ZM1880.71 476C1878.58 476 1876.77 475.36 1875.27 474.08C1873.99 472.587 1873.35 470.773 1873.35 468.64V259.68C1873.35 257.333 1873.99 255.52 1875.27 254.24C1876.77 252.747 1878.58 252 1880.71 252H2012.87C2015.01 252 2016.71 252.747 2017.99 254.24C2019.49 255.52 2020.23 257.333 2020.23 259.68V271.84C2020.23 273.973 2019.59 275.787 2018.31 277.28C2017.03 278.56 2015.22 279.2 2012.87 279.2H1904.07V349.28H2005.83C2007.97 349.28 2009.67 350.027 2010.95 351.52C2012.45 352.8 2013.19 354.613 2013.19 356.96V368.8C2013.19 370.933 2012.45 372.747 2010.95 374.24C2009.67 375.52 2007.97 376.16 2005.83 376.16H1904.07V448.8H2015.43C2017.78 448.8 2019.59 449.44 2020.87 450.72C2022.15 452 2022.79 453.813 2022.79 456.16V468.64C2022.79 470.773 2022.05 472.587 2020.55 474.08C2019.27 475.36 2017.57 476 2015.43 476H1880.71ZM2193.81 479.2C2176.11 479.2 2160.75 476.427 2147.73 470.88C2134.93 465.333 2125.12 458.08 2118.29 449.12C2111.47 439.947 2107.84 430.133 2107.41 419.68C2107.41 417.973 2108.05 416.48 2109.33 415.2C2110.83 413.707 2112.53 412.96 2114.45 412.96H2130.77C2134.83 412.96 2137.6 415.093 2139.09 419.36C2141.01 428.32 2146.45 436 2155.41 442.4C2164.59 448.8 2177.39 452 2193.81 452C2211.52 452 2224.85 448.907 2233.81 442.72C2242.77 436.32 2247.25 427.467 2247.25 416.16C2247.25 408.907 2245.01 403.04 2240.53 398.56C2236.27 394.08 2229.87 390.133 2221.33 386.72C2212.8 383.307 2200 379.04 2182.93 373.92C2166.29 369.227 2153.07 364.213 2143.25 358.88C2133.44 353.547 2126.08 346.933 2121.17 339.04C2116.27 331.147 2113.81 321.227 2113.81 309.28C2113.81 297.76 2116.91 287.413 2123.09 278.24C2129.49 269.067 2138.56 261.92 2150.29 256.8C2162.03 251.467 2176 248.8 2192.21 248.8C2208.85 248.8 2223.15 251.787 2235.09 257.76C2247.04 263.52 2256.11 270.88 2262.29 279.84C2268.48 288.8 2271.79 297.76 2272.21 306.72C2272.21 308.427 2271.57 309.92 2270.29 311.2C2269.23 312.48 2267.63 313.12 2265.49 313.12H2248.53C2244.05 313.12 2241.28 311.093 2240.21 307.04C2238.93 298.08 2233.92 290.72 2225.17 284.96C2216.43 278.987 2205.44 276 2192.21 276C2177.71 276 2166.29 278.773 2157.97 284.32C2149.65 289.867 2145.49 298.08 2145.49 308.96C2145.49 316.213 2147.41 322.187 2151.25 326.88C2155.31 331.573 2161.39 335.733 2169.49 339.36C2177.6 342.773 2189.44 346.72 2205.01 351.2C2223.15 356.107 2237.44 361.227 2247.89 366.56C2258.35 371.68 2266.13 378.187 2271.25 386.08C2276.37 393.76 2278.93 403.573 2278.93 415.52C2278.93 435.36 2271.25 450.933 2255.89 462.24C2240.53 473.547 2219.84 479.2 2193.81 479.2Z" fill="#606060"/>
</svg>
